<svg width="70" height="70" viewBox="0 0 70 70" fill="none" xmlns="http://www.w3.org/2000/svg">
<g clip-path="url(#clip0_2_452)">
<g clip-path="url(#clip1_2_452)">
<path fill-rule="evenodd" clip-rule="evenodd" d="M26.5057 6.90247C9.41819 3.88948 5.73645 19.5341 2.72524 36.6115C-0.285973 53.6889 1.64474 66.2312 18.7323 69.2442C35.8198 72.2572 65.063 64.8326 68.0742 47.7552C71.0854 30.6778 43.5933 9.91547 26.5057 6.90247Z" fill="#F8F1F0"/>
<path fill-rule="evenodd" clip-rule="evenodd" d="M-2.03317 13.2442C-1.79915 14.5714 -0.470663 15.6044 0.823081 15.3763C2.11683 15.1482 2.84271 13.6966 2.60869 12.3694C2.37467 11.0422 1.03931 10.2836 -0.254431 10.5117C-1.54818 10.7399 -2.26719 11.917 -2.03317 13.2442Z" fill="#F8F1F0"/>
<path fill-rule="evenodd" clip-rule="evenodd" d="M69.9857 60.1507C67.9158 58.7014 64.7902 59.0854 63.3837 61.0941C61.9771 63.1029 61.3138 66.5625 63.3837 68.0118C65.4536 69.4612 69.8543 68.1254 71.2608 66.1166C72.6674 64.1078 72.0556 61.6001 69.9857 60.1507Z" fill="#F8F1F0"/>
<path fill-rule="evenodd" clip-rule="evenodd" d="M37.8241 4.00026C38.1459 5.82514 40.0004 7.24065 41.8116 6.92128C43.6229 6.60191 44.8023 5.95156 44.4806 4.12668C44.1588 2.30179 42.136 -0.0859405 40.3247 0.23343C38.5135 0.552801 37.5024 2.17537 37.8241 4.00026Z" fill="#F8F1F0"/>
<path d="M40.4445 36.4002C40.4445 30.2242 35.4205 25.2002 29.2445 25.2002C23.0685 25.2002 18.0445 30.2242 18.0445 36.4002C18.0445 42.5762 23.0685 47.6002 29.2445 47.6002C35.4205 47.6002 40.4445 42.5762 40.4445 36.4002ZM19.6445 36.4002C19.6445 31.1066 23.9509 26.8002 29.2445 26.8002C34.5381 26.8002 38.8445 31.1066 38.8445 36.4002C38.8445 41.6938 34.5381 46.0002 29.2445 46.0002C23.9509 46.0002 19.6445 41.6938 19.6445 36.4002Z" fill="#F69946"/>
<path d="M30.1778 44.4887V42.8616C31.9231 42.6617 33.2889 41.1647 33.2889 39.3321C33.2889 37.3638 31.7186 35.7621 29.7889 35.7621H29.0111C27.9386 35.7621 27.0667 34.8719 27.0667 33.7787C27.0667 32.6855 27.9386 31.7954 29.0111 31.7954H29.7889C30.8615 31.7954 31.7334 32.6855 31.7334 33.7787V34.1754H33.2889V33.7787C33.2889 31.9461 31.9231 30.4491 30.1778 30.2492V28.6221H28.6222V30.2492C26.8769 30.4491 25.5111 31.9461 25.5111 33.7787C25.5111 35.747 27.0815 37.3487 29.0111 37.3487H29.7889C30.8615 37.3487 31.7334 38.2389 31.7334 39.3321C31.7334 40.4253 30.8615 41.3154 29.7889 41.3154H29.0111C27.9386 41.3154 27.0667 40.4253 27.0667 39.3321V38.9354H25.5111V39.3321C25.5111 41.1647 26.8769 42.6617 28.6222 42.8616V44.4887H30.1778Z" fill="#F69946"/>
<path d="M30.2124 14.1245H55.6544V15.7112H57.2445V11.7445C57.2445 9.55728 55.4612 7.77783 53.2692 7.77783H32.5976C30.4056 7.77783 28.6223 9.55728 28.6223 11.7445V23.6445H30.2124V14.1245ZM30.2124 11.7445C30.2124 10.4323 31.2825 9.3645 32.5976 9.3645H53.2692C54.5842 9.3645 55.6544 10.4323 55.6544 11.7445V12.5378H30.2124V11.7445Z" fill="#F69946"/>
<path d="M28.6223 53.3557C28.6223 55.5 30.4056 57.2446 32.5976 57.2446H53.2692C55.4612 57.2446 57.2445 55.5 57.2445 53.3557V49.4668H28.6223V53.3557ZM30.2124 51.0224H55.6544V53.3557C55.6544 54.6421 54.5842 55.689 53.2692 55.689H32.5976C31.2825 55.689 30.2124 54.6421 30.2124 53.3557V51.0224Z" fill="#F69946"/>
<path d="M46.0445 52.5776H39.8222V54.1332H46.0445V52.5776Z" fill="#F69946"/>
<path d="M65.1041 17.1113H39.4293C38.1022 17.1113 37.0222 18.1904 37.0222 19.5165V26.7318H37.8246H38.6269H65.9065V35.5506C65.9065 35.9924 65.547 36.3524 65.1041 36.3524H41.8363V37.9558H65.1041C66.4312 37.9558 67.5111 36.8767 67.5111 35.5506V19.5165C67.5111 18.1904 66.4312 17.1113 65.1041 17.1113ZM65.9065 25.1284H38.6269V21.9216H65.9065V25.1284ZM65.9065 20.3182H38.6269V19.5165C38.6269 19.0747 38.9864 18.7147 39.4293 18.7147H65.1041C65.547 18.7147 65.9065 19.0747 65.9065 19.5165V20.3182Z" fill="#F69946"/>
<path d="M58.8 33.7694C59.3872 34.4227 60.2392 34.8443 61.2 34.8443C62.9648 34.8443 64.4 33.449 64.4 31.7332C64.4 30.0174 62.9648 28.6221 61.2 28.6221C60.2392 28.6221 59.3872 29.0436 58.8 29.697C58.2128 29.0436 57.3608 28.6221 56.4 28.6221C54.6352 28.6221 53.2 30.0174 53.2 31.7332C53.2 33.449 54.6352 34.8443 56.4 34.8443C57.3608 34.8443 58.2128 34.4227 58.8 33.7694ZM61.2 30.1776C62.0824 30.1776 62.8 30.8753 62.8 31.7332C62.8 32.5911 62.0824 33.2887 61.2 33.2887C60.3176 33.2887 59.6 32.5911 59.6 31.7332C59.6 30.8753 60.3176 30.1776 61.2 30.1776ZM54.8 31.7332C54.8 30.8753 55.5176 30.1776 56.4 30.1776C57.2824 30.1776 58 30.8753 58 31.7332C58 32.5911 57.2824 33.2887 56.4 33.2887C55.5176 33.2887 54.8 32.5911 54.8 31.7332Z" fill="#F69946"/>
<path d="M57.2445 39.8223H55.6889V47.6H57.2445V39.8223Z" fill="#F69946"/>
<path d="M43.5556 39.5112H42V41.0668H43.5556V39.5112Z" fill="#F69946"/>
<path d="M46.6667 39.5112H45.1111V41.0668H46.6667V39.5112Z" fill="#F69946"/>
<path d="M49.7778 39.5112H48.2222V41.0668H49.7778V39.5112Z" fill="#F69946"/>
</g>
</g>
<defs>
<clipPath id="clip0_2_452">
<rect width="70" height="70" fill="white"/>
</clipPath>
<clipPath id="clip1_2_452">
<rect width="74.3556" height="70" fill="white" transform="translate(-2.17776)"/>
</clipPath>
</defs>
</svg>
