<svg width="70" height="70" viewBox="0 0 70 70" fill="none" xmlns="http://www.w3.org/2000/svg">
<g clip-path="url(#clip0_2_412)">
<g clip-path="url(#clip1_2_412)">
<g clip-path="url(#clip2_2_412)">
<path fill-rule="evenodd" clip-rule="evenodd" d="M38.5053 7.66651C20.1973 4.4383 0.809429 6.36926 -2.41687 24.6665C-5.64317 42.9638 11.1448 66.2721 29.4528 69.5003C47.7609 72.7285 67.2802 52.2734 70.5065 33.9761C73.7328 15.6789 56.8134 10.8947 38.5053 7.66651Z" fill="#F8F1F0"/>
<path fill-rule="evenodd" clip-rule="evenodd" d="M-4.19234 63.6423C-3.69087 66.4863 -0.872647 68.705 1.86645 68.222C4.60554 67.739 6.13656 64.6327 5.63509 61.7887C5.13362 58.9448 2.30206 57.314 -0.437035 57.7969C-3.17613 58.2799 -4.69381 60.7983 -4.19234 63.6423Z" fill="#F8F1F0"/>
<path fill-rule="evenodd" clip-rule="evenodd" d="M68.4828 57.9117C66.9304 56.8247 64.5866 57.1122 63.5321 58.6182C62.4776 60.1242 61.9806 62.7181 63.533 63.8051C65.0854 64.8921 68.3854 63.8911 69.4399 62.3852C70.4944 60.8792 70.0352 58.9988 68.4828 57.9117Z" fill="#F8F1F0"/>
<path fill-rule="evenodd" clip-rule="evenodd" d="M-0.596201 5.81761C-0.361137 7.15073 0.968321 8.18924 2.26207 7.96112C3.55581 7.733 4.39705 7.2615 4.16199 5.92839C3.92693 4.59527 2.47444 2.84654 1.18069 3.07466C-0.11305 3.30278 -0.831264 4.4845 -0.596201 5.81761Z" fill="#F8F1F0"/>
<path d="M32.3333 29.8332C32.3333 30.4771 31.8111 30.9998 31.1667 30.9998C30.5223 30.9998 30 30.4771 30 29.8332C30 29.1888 30.5223 28.6665 31.1667 28.6665C31.8111 28.6665 32.3333 29.1888 32.3333 29.8332Z" fill="#F69946"/>
<path d="M19.295 33.803C20.8772 35.5527 20.8115 36.949 20.703 39.2626C20.6701 39.9562 20.6332 40.7423 20.6472 41.5928C20.7147 45.7133 23.7315 46.3988 26.1554 46.9491C28.2175 47.4179 30.1656 47.8605 31.3342 49.9004C33.3341 53.4539 35.0338 56.2908 38.9706 55.0278C40.3075 54.5983 41.2636 54.1922 42.032 53.8659C43.1865 53.3755 43.8226 53.1051 44.8331 53.1051C45.8432 53.1051 46.4797 53.3755 47.6343 53.8659C48.4031 54.1922 49.3592 54.5987 50.6961 55.0278C52.5655 55.6277 54.0819 55.301 55.3689 54.1616C56.5491 53.1163 57.4701 51.4086 58.3321 49.9004C59.5011 47.8605 61.4488 47.4179 63.5108 46.9491C65.9348 46.3988 68.9516 45.7133 69.0182 41.5928C69.0321 40.7418 68.9957 39.9553 68.9633 39.2617C68.8548 36.9486 68.7895 35.5522 70.3717 33.803C72.7732 31.1478 74.336 29.4923 74.3333 27.6606C74.3365 25.7058 72.4135 23.7776 70.3717 21.5209C68.7895 19.7707 68.8548 18.3744 68.9633 16.0609C68.9957 15.3672 69.0326 14.5807 69.0182 13.7302C68.9516 9.61015 65.9352 8.92461 63.5113 8.37383C61.4492 7.90508 59.5011 7.46247 58.3321 5.42206C57.466 3.9081 56.5374 2.19626 55.368 1.16051C54.0486 -0.00730642 52.5204 -0.289908 50.6961 0.295577C49.3583 0.725113 48.4009 1.13121 47.632 1.45798C46.4779 1.94792 45.8423 2.2179 44.834 2.21835C43.8235 2.2179 43.1883 1.94792 42.0342 1.45798C41.2654 1.13121 40.3084 0.725113 38.9706 0.296028C37.1462 -0.290358 35.618 -0.00730642 34.2987 1.16051C33.1185 2.20528 32.1966 3.91441 31.3342 5.42206C30.1661 7.46112 28.1418 7.90463 25.9988 8.37383C23.4906 8.92326 20.369 9.607 20.3015 13.7302C20.2848 14.7641 20.3681 15.6931 20.4423 16.5125C20.6328 18.6331 20.748 19.9132 19.295 21.5209C16.9304 24.1346 15.3271 25.8234 15.3333 27.6579C15.3266 29.5996 17.1947 31.4813 19.295 33.803ZM21.0032 23.0695C23.1337 20.7127 22.941 18.5718 22.7376 16.3056C22.6655 15.506 22.5908 14.6789 22.6057 13.7676C22.6417 11.5636 23.8228 11.2125 26.4907 10.6283C28.7923 10.124 31.6564 9.49702 33.3332 6.5705C35.0275 3.81345 35.7882 1.69732 38.2671 2.49329C39.5049 2.89082 40.3705 3.25816 41.1344 3.58268C42.375 4.10912 43.3544 4.52558 44.8336 4.52603C46.3109 4.52558 47.2908 4.10912 48.5314 3.58268C49.2953 3.25816 50.1609 2.89082 51.3996 2.49329C53.8731 1.69957 54.6131 3.77243 56.3331 6.5705C58.0048 9.48846 60.7754 10.1181 63.0013 10.6243C65.6156 11.2183 66.6775 11.5482 66.714 13.768C66.7266 14.546 66.6933 15.2613 66.6609 15.9531C66.5488 18.3496 66.4425 20.6136 68.663 23.07C70.3632 24.949 72.0305 26.7204 72.0282 27.6579V27.6637C72.0309 28.6765 70.0395 30.7327 68.663 32.2539C66.4425 34.7089 66.5488 36.9729 66.6609 39.3694C66.6933 40.0612 66.7266 40.777 66.714 41.5549C66.6775 43.7752 65.6152 44.1046 63.0008 44.6987C60.7749 45.2044 58.0048 45.8341 56.3331 48.7525L56.1773 49.0238C54.2282 52.433 53.4279 53.4805 51.3996 52.8306C50.1627 52.433 49.2975 52.0657 48.5341 51.7416C47.2926 51.2143 46.3118 50.7974 44.8331 50.7974C43.354 50.7974 42.3732 51.2138 41.1317 51.7416C40.3687 52.0657 39.5036 52.433 38.2671 52.8301C35.7985 53.622 35.0626 51.5663 33.3336 48.752C31.6614 45.834 28.8913 45.2044 26.6654 44.6987C24.0506 44.1046 22.9878 43.7752 22.9514 41.5549C22.9388 40.7774 22.9725 40.0626 23.0049 39.3712C23.1179 36.9738 23.2242 34.7094 21.0032 32.2539C19.4516 30.5389 17.6349 28.631 17.638 27.6579C17.6344 26.6474 19.6299 24.588 21.0032 23.0695Z" fill="#F69946"/>
<path d="M40.1667 19.6665C38.2366 19.6665 36.6667 21.2365 36.6667 23.1665C36.6667 25.0961 38.2366 26.6665 40.1667 26.6665C42.0967 26.6665 43.6667 25.0961 43.6667 23.1665C43.6667 21.2365 42.0967 19.6665 40.1667 19.6665ZM40.1667 24.3332C39.5232 24.3332 39 23.8095 39 23.1665C39 22.523 39.5232 21.9998 40.1667 21.9998C40.8101 21.9998 41.3333 22.523 41.3333 23.1665C41.3333 23.8095 40.8101 24.3332 40.1667 24.3332Z" fill="#F69946"/>
<path d="M46 32.1665C46 34.0961 47.57 35.6665 49.5 35.6665C51.43 35.6665 53 34.0961 53 32.1665C53 30.2365 51.43 28.6665 49.5 28.6665C47.57 28.6665 46 30.2365 46 32.1665ZM50.6667 32.1665C50.6667 32.8095 50.1435 33.3332 49.5 33.3332C48.8565 33.3332 48.3333 32.8095 48.3333 32.1665C48.3333 31.523 48.8565 30.9998 49.5 30.9998C50.1435 30.9998 50.6667 31.523 50.6667 32.1665Z" fill="#F69946"/>
<path d="M39.838 35.4747C40.3564 35.823 41.0612 35.685 41.4096 35.1578L50.4763 21.4436C50.8234 20.9182 50.6826 20.2088 50.162 19.8588C49.6409 19.5083 48.9374 19.6503 48.5904 20.1757L39.5237 33.8899C39.1766 34.4149 39.3174 35.1243 39.838 35.4747Z" fill="#F69946"/>
<path d="M45 47.3333C55.8442 47.3333 64.6667 38.5109 64.6667 27.6667C64.6667 16.8224 55.8442 8 45 8C34.1558 8 25.3333 16.8224 25.3333 27.6667C25.3333 38.5109 34.1558 47.3333 45 47.3333ZM45 10.3137C54.5685 10.3137 62.3529 18.0981 62.3529 27.6667C62.3529 37.2347 54.5685 45.0196 45 45.0196C35.4315 45.0196 27.6471 37.2347 27.6471 27.6667C27.6471 18.0981 35.4315 10.3137 45 10.3137Z" fill="#F69946"/>
<path d="M42.7035 15.2934C43.3324 15.1874 43.7564 14.5916 43.6504 13.9628C43.5449 13.3341 42.9494 12.9106 42.3201 13.0161C36.0202 14.0765 31.0755 19.0212 30.0163 25.3203C29.8981 26.0221 30.4385 26.6667 31.1562 26.6667C31.7098 26.6667 32.1988 26.2675 32.294 25.7033C33.1899 20.3738 37.3736 16.1905 42.7035 15.2934Z" fill="#F69946"/>
</g>
</g>
</g>
<defs>
<clipPath id="clip0_2_412">
<rect width="70" height="70" fill="white"/>
</clipPath>
<clipPath id="clip1_2_412">
<rect width="70" height="70" fill="white"/>
</clipPath>
<clipPath id="clip2_2_412">
<rect width="78.6667" height="70" fill="white" transform="translate(-4.33334)"/>
</clipPath>
</defs>
</svg>
