<svg width="56" height="64" viewBox="0 0 56 64" fill="none" xmlns="http://www.w3.org/2000/svg">
<path d="M36.2925 21.0657C36.2925 30.0373 31.4253 37.8711 24.189 42.0728C22.8009 41.2668 21.5003 40.3271 20.3043 39.2697C15.2642 34.8241 12.0859 28.3169 12.0859 21.0657C12.0859 12.0941 16.9526 4.26034 24.189 0.0591125C28.2418 2.41229 31.5505 5.9042 33.6776 10.097C35.3502 13.3913 36.2925 17.1187 36.2925 21.0657Z" fill="#A9C623"/>
<path d="M24.137 34.6332C23.6375 34.6332 23.2328 34.2138 23.2328 33.6971V8.71955C23.2328 8.20237 23.6375 7.78342 24.137 7.78342C24.6366 7.78342 25.0413 8.20237 25.0413 8.71955V33.6971C25.0413 34.2138 24.6366 34.6332 24.137 34.6332Z" fill="#8EA914"/>
<path d="M24.137 17.5217C23.8912 17.5217 23.6551 17.4219 23.4813 17.2445L19.7484 13.4338C19.386 13.0643 19.386 12.4647 19.7484 12.0953C20.1103 11.7254 20.6977 11.7258 21.0597 12.0953L24.137 15.2363L27.2147 12.0953C27.5767 11.7254 28.1636 11.7254 28.526 12.0953C28.888 12.4647 28.888 13.0643 28.526 13.4338L24.7926 17.244C24.6188 17.4219 24.3832 17.5217 24.137 17.5217Z" fill="#8EA914"/>
<path d="M36.8664 22.1735C36.8664 30.6437 32.2521 38.0396 25.3918 42.0065C24.0759 41.2455 22.8429 40.3584 21.709 39.36C19.8714 33.2761 20.5698 26.4668 24.2053 20.6489C25.2957 18.9037 26.5819 17.3552 28.0192 16.0163C29.9157 14.2477 32.074 12.8387 34.3874 11.8178C35.973 14.928 36.8664 18.4471 36.8664 22.1735Z" fill="#8EA914"/>
<path d="M21.4071 39.9814C21.5373 41.208 21.7623 42.4257 22.0806 43.6248C30.1609 45.7685 39.1309 43.6733 45.4679 37.3368C51.805 31.0007 53.9002 22.0295 51.756 13.9492C45.6355 12.3258 39.0035 13.1333 33.3936 16.3748C31.5976 17.4124 29.9056 18.7002 28.3686 20.2372C22.9716 25.6341 20.6509 32.941 21.4071 39.9814Z" fill="#A9C623"/>
<path d="M28.4694 38.1775C28.2284 38.1775 27.9874 38.0859 27.8039 37.9037C27.4361 37.5383 27.4361 36.9466 27.8039 36.5812L46.9285 17.5838C47.2958 17.2184 47.892 17.2184 48.2594 17.5838C48.6267 17.9487 48.6267 18.5405 48.2594 18.9059L29.1348 37.9037C28.9509 38.0859 28.7104 38.1775 28.4694 38.1775Z" fill="#8EA914"/>
<path d="M38.1244 44.9253C38.1244 55.4526 29.5898 63.9872 19.0625 63.9872C8.53458 63.9872 0 55.4526 0 44.9253C0 34.3974 8.53458 25.8628 19.0625 25.8628C29.5898 25.8628 38.1244 34.3974 38.1244 44.9253Z" fill="#F69946"/>
<path d="M10.1709 44.9253C10.1709 36.1587 16.0888 28.7756 24.1474 26.5503C22.5285 26.103 20.8232 25.8628 19.0625 25.8628C8.53458 25.8628 0 34.3974 0 44.9253C0 55.4532 8.53458 63.9872 19.0625 63.9872C20.8232 63.9872 22.5285 63.7476 24.1474 63.3003C16.0888 61.0744 10.1709 53.6914 10.1709 44.9253Z" fill="#EA8D39"/>
<path d="M43.0086 32.6128H34.0286C33.5118 32.6128 33.0928 32.1942 33.0928 31.6774V22.697C33.0928 22.1802 33.5118 21.7616 34.0286 21.7616C34.5449 21.7616 34.9639 22.1802 34.9639 22.697V30.742H43.0086C43.5249 30.742 43.944 31.1606 43.944 31.6774C43.944 32.1942 43.5249 32.6128 43.0086 32.6128Z" fill="#8EA914"/>
<path d="M45.0905 26.909H39.7369C39.2174 26.909 38.7966 26.4877 38.7966 25.9687V20.6155C38.7966 20.0961 39.2174 19.6748 39.7369 19.6748C40.2559 19.6748 40.6772 20.0961 40.6772 20.6155V25.0281H45.0905C45.61 25.0281 46.0308 25.4493 46.0308 25.9687C46.0308 26.4877 45.61 26.909 45.0905 26.909Z" fill="#8EA914"/>
<path d="M55.1811 49.6678C55.1811 57.5764 48.7697 63.9872 40.8611 63.9872C32.9526 63.9872 26.5417 57.5764 26.5417 49.6678C26.5417 41.7593 32.9526 35.3479 40.8611 35.3479C48.7697 35.3479 55.1811 41.7593 55.1811 49.6678Z" fill="#F69946"/>
<path d="M34.3921 49.6678C34.3921 43.12 38.7863 37.5993 44.7863 35.8929C43.5391 35.5381 42.2224 35.3479 40.8611 35.3479C32.9526 35.3479 26.5417 41.7593 26.5417 49.6678C26.5417 57.5758 32.9526 63.9872 40.8611 63.9872C42.2224 63.9872 43.5391 63.797 44.7863 63.4427C38.7863 61.7358 34.3921 56.2151 34.3921 49.6678Z" fill="#EA8D39"/>
<path d="M13.4983 37.5542C13.4983 39.6062 11.8348 41.2702 9.7823 41.2702C7.73031 41.2702 6.06686 39.6062 6.06686 37.5542C6.06686 35.5022 7.73031 33.8382 9.7823 33.8382C11.8348 33.8382 13.4983 35.5022 13.4983 37.5542Z" fill="#BB6F2A"/>
<path d="M49.2718 47.3903C49.2718 48.8385 48.0974 50.0129 46.6487 50.0129C45.2004 50.0129 44.0261 48.8385 44.0261 47.3903C44.0261 45.9415 45.2004 44.7672 46.6487 44.7672C48.0974 44.7672 49.2718 45.9415 49.2718 47.3903Z" fill="#BB6F2A"/>
</svg>
