<svg width="70" height="71" viewBox="0 0 70 71" fill="none" xmlns="http://www.w3.org/2000/svg">
<g clip-path="url(#clip0_2_395)">
<g clip-path="url(#clip1_2_395)">
<path fill-rule="evenodd" clip-rule="evenodd" d="M39.5449 9.03489C22.3811 6.00844 3.88702 17.9467 0.862371 35.1003C-2.16228 52.254 -0.222958 64.8523 16.9409 67.8787C34.1047 70.9052 61.733 60.6067 64.7576 43.4531C67.7823 26.2994 56.7087 12.0613 39.5449 9.03489Z" fill="#F8F1F0"/>
<path fill-rule="evenodd" clip-rule="evenodd" d="M53.2702 67.8785C53.5053 69.2116 54.8397 70.2492 56.1392 70.0201C57.4388 69.7909 58.1679 68.3328 57.9328 66.9997C57.6978 65.6666 56.3564 64.9046 55.0569 65.1338C53.7574 65.3629 53.0352 66.5454 53.2702 67.8785Z" fill="#F8F1F0"/>
<path fill-rule="evenodd" clip-rule="evenodd" d="M68.4231 58.7444C66.344 57.2886 63.2045 57.6744 61.7916 59.6921C60.3788 61.7098 59.7125 65.1848 61.7916 66.6407C63.8708 68.0965 68.2911 66.7547 69.7039 64.737C71.1168 62.7192 70.5022 60.2003 68.4231 58.7444Z" fill="#F8F1F0"/>
<path fill-rule="evenodd" clip-rule="evenodd" d="M-0.444515 5.46845C-0.121302 7.30148 1.74145 8.72331 3.56077 8.40251C5.3801 8.08172 6.56483 7.42847 6.24161 5.59544C5.9184 3.76241 3.88655 1.36401 2.06723 1.68481C0.247898 2.00561 -0.767728 3.63542 -0.444515 5.46845Z" fill="#F8F1F0"/>
<path d="M67.8832 43.661C67.5515 42.8108 66.8864 42.1316 66.0407 41.7794C65.2124 41.4291 64.2765 41.4291 63.4482 41.7794L57.4447 44.3148C57.4608 44.2047 57.471 44.0937 57.4753 43.9824C57.4753 42.2022 56.0244 40.759 54.2347 40.759H47.0525C46.3263 40.7579 45.6102 40.5899 44.96 40.2682C41.955 38.7785 38.644 38.0009 35.2864 37.9962H34.791C34.2797 37.9962 33.8651 38.4085 33.8651 38.9171C33.8651 39.4257 34.2797 39.8381 34.791 39.8381H35.2864C38.3567 39.8419 41.3845 40.5531 44.1323 41.9158C45.0394 42.3654 46.039 42.5999 47.0525 42.6009H54.2347C55.0017 42.6054 55.6199 43.2274 55.6154 43.9904C55.6117 44.6298 55.1673 45.1832 54.5411 45.3279C54.4198 45.3389 54.3004 45.3638 54.1773 45.3638H43.124C42.6127 45.3638 42.1981 45.7762 42.1981 46.2848C42.1981 46.7934 42.6127 47.2057 43.124 47.2057H54.1773H54.2236H54.2347C54.2532 47.2057 54.2708 47.2002 54.2902 47.2002C55.0249 47.1882 55.7505 47.0356 56.4272 46.7508L64.1676 43.4814C64.5368 43.3239 64.9548 43.3239 65.324 43.4814C65.7076 43.6424 66.0085 43.952 66.1573 44.3388C66.3156 44.7336 66.3065 45.1755 66.1323 45.5637C65.9692 45.9394 65.6603 46.2337 65.2759 46.3796L50.9728 51.8041C47.6118 53.0843 43.8869 53.0441 40.5547 51.6917L32.9392 48.543V37.9962C32.9392 37.4876 32.5247 37.0752 32.0133 37.0752H24.6062C24.0949 37.0752 23.6803 37.4876 23.6803 37.9962H19.0509C18.5396 37.9962 18.125 38.4085 18.125 38.9171C18.125 39.4257 18.5396 39.8381 19.0509 39.8381H23.6803V44.4429C23.6803 44.9515 24.0949 45.3638 24.6062 45.3638C25.1175 45.3638 25.5321 44.9515 25.5321 44.4429V38.9171H31.0874V49.9686H25.5321V48.1267C25.5321 47.6181 25.1175 47.2057 24.6062 47.2057C24.0949 47.2057 23.6803 47.6181 23.6803 48.1267V49.0476H19.0509C18.5396 49.0476 18.125 49.46 18.125 49.9686C18.125 50.4772 18.5396 50.8896 19.0509 50.8896H23.6803C23.6803 51.3982 24.0949 51.8105 24.6062 51.8105H32.0133C32.5247 51.8105 32.9392 51.3982 32.9392 50.8896V50.5387L39.8519 53.3937C43.6206 54.9232 47.8332 54.9693 51.6348 53.5226L65.937 48.0981C66.7845 47.7781 67.4664 47.1317 67.8286 46.305C68.2039 45.467 68.2236 44.5137 67.8832 43.661Z" fill="#F69946"/>
<path d="M67.1478 7.32514C67.1478 7.31408 67.1478 7.30394 67.1478 7.29287C67.112 7.18696 67.0568 7.08842 66.9852 7.00245C66.9639 6.97571 66.939 6.95635 66.9159 6.93238C66.8623 6.87868 66.8025 6.83166 66.7376 6.79224C66.7035 6.77242 66.6684 6.75456 66.6322 6.73877C66.6053 6.72344 66.5775 6.70961 66.5491 6.69728L46.223 0.243499C46.0409 0.185761 45.8452 0.185761 45.6631 0.243499L25.337 6.69728C24.9527 6.81656 24.6898 7.17048 24.6875 7.57223V29.6995C24.6875 30.1018 24.9497 30.4574 25.3342 30.5781L45.6603 37.0319C45.8425 37.0896 46.0381 37.0896 46.2202 37.0319L66.5463 30.5781C66.9287 30.4555 67.1875 30.1003 67.1875 29.6995V7.57223C67.1857 7.48844 67.1723 7.40535 67.1478 7.32514ZM45.9375 2.08651L63.2147 7.57223L59.641 8.70717L42.3647 3.22054L45.9375 2.08651ZM39.3167 4.1886L56.5939 9.67432L53.0211 10.8093L35.744 5.32355L39.3167 4.1886ZM65.3397 29.0246L46.8614 34.892V31.5434C46.8614 31.0343 46.4477 30.6214 45.9375 30.6214C45.4273 30.6214 45.0136 31.0343 45.0136 31.5434V34.892L26.5353 29.0255V8.24619L32.6951 6.29069L49.9722 11.7773L45.9375 13.0579L30.5082 8.16044C30.0218 8.00613 29.5024 8.27442 29.3477 8.75972C29.1931 9.24502 29.4619 9.7634 29.9483 9.91772L45.0136 14.7V27.8555C45.0136 28.3647 45.4273 28.7775 45.9375 28.7775C46.4477 28.7775 46.8614 28.3647 46.8614 27.8555V14.7L52.0972 13.0404V19.1568C52.0972 19.6659 52.5109 20.0787 53.0211 20.0787C53.1151 20.0782 53.2086 20.0635 53.2983 20.0354L55.4538 19.3495C55.9401 19.1951 56.209 18.6768 56.0543 18.1915C55.8997 17.7062 55.3802 17.4379 54.8939 17.5922L53.9423 17.8946V12.455L58.7152 10.9393V16.3789L57.6657 16.7117C57.1793 16.866 56.9105 17.3844 57.0651 17.8697C57.1867 18.2515 57.5415 18.5112 57.9428 18.5123C58.0369 18.5124 58.1305 18.4978 58.22 18.469L59.9145 17.9315C60.299 17.8108 60.5608 17.4552 60.5612 17.0528V10.3492L65.3397 8.83348V29.0246Z" fill="#F69946"/>
<path d="M29.375 23.3252C28.8573 23.3252 28.4375 23.745 28.4375 24.2627V27.0752C28.4375 27.5929 28.8573 28.0127 29.375 28.0127C29.8927 28.0127 30.3125 27.5929 30.3125 27.0752V24.2627C30.3125 23.745 29.8927 23.3252 29.375 23.3252Z" fill="#F69946"/>
<path d="M33.125 24.2627C32.6073 24.2627 32.1875 24.6825 32.1875 25.2002V28.0127C32.1875 28.5304 32.6073 28.9502 33.125 28.9502C33.6427 28.9502 34.0625 28.5304 34.0625 28.0127V25.2002C34.0625 24.6825 33.6427 24.2627 33.125 24.2627Z" fill="#F69946"/>
</g>
</g>
<defs>
<clipPath id="clip0_2_395">
<rect width="70" height="70" fill="white" transform="translate(0 0.200195)"/>
</clipPath>
<clipPath id="clip1_2_395">
<rect width="71.25" height="70" fill="white" transform="translate(-0.625 0.200195)"/>
</clipPath>
</defs>
</svg>
