<svg width="190" height="64" viewBox="0 0 190 64" fill="none" xmlns="http://www.w3.org/2000/svg">
<g clip-path="url(#clip0_2_31)">
<g clip-path="url(#clip1_2_31)">
<path d="M36.2925 21.0657C36.2925 30.0373 31.4253 37.8711 24.189 42.0728C22.8009 41.2668 21.5003 40.3271 20.3043 39.2697C15.2642 34.8241 12.0859 28.3169 12.0859 21.0657C12.0859 12.0941 16.9526 4.26034 24.189 0.0591125C28.2418 2.41229 31.5505 5.9042 33.6776 10.097C35.3502 13.3913 36.2925 17.1187 36.2925 21.0657Z" fill="#A9C623"/>
<path d="M24.137 34.6332C23.6375 34.6332 23.2328 34.2138 23.2328 33.6971V8.71955C23.2328 8.20237 23.6375 7.78342 24.137 7.78342C24.6366 7.78342 25.0413 8.20237 25.0413 8.71955V33.6971C25.0413 34.2138 24.6366 34.6332 24.137 34.6332Z" fill="#8EA914"/>
<path d="M24.137 17.5217C23.8912 17.5217 23.6551 17.4219 23.4813 17.2445L19.7484 13.4338C19.386 13.0643 19.386 12.4647 19.7484 12.0953C20.1103 11.7254 20.6977 11.7258 21.0597 12.0953L24.137 15.2363L27.2147 12.0953C27.5767 11.7254 28.1636 11.7254 28.526 12.0953C28.888 12.4647 28.888 13.0643 28.526 13.4338L24.7926 17.244C24.6188 17.4219 24.3832 17.5217 24.137 17.5217Z" fill="#8EA914"/>
<path d="M36.8664 22.1735C36.8664 30.6437 32.2521 38.0396 25.3918 42.0065C24.0759 41.2455 22.8429 40.3584 21.709 39.36C19.8714 33.2761 20.5698 26.4668 24.2053 20.6489C25.2957 18.9037 26.5819 17.3552 28.0192 16.0163C29.9157 14.2477 32.074 12.8387 34.3874 11.8178C35.973 14.928 36.8664 18.4471 36.8664 22.1735Z" fill="#8EA914"/>
<path d="M21.4071 39.9814C21.5373 41.208 21.7623 42.4257 22.0806 43.6248C30.1609 45.7685 39.1309 43.6733 45.4679 37.3368C51.805 31.0007 53.9002 22.0295 51.756 13.9492C45.6355 12.3258 39.0035 13.1333 33.3936 16.3748C31.5976 17.4124 29.9056 18.7002 28.3686 20.2372C22.9716 25.6341 20.6509 32.941 21.4071 39.9814Z" fill="#A9C623"/>
<path d="M28.4694 38.1775C28.2284 38.1775 27.9874 38.0859 27.8039 37.9037C27.4361 37.5383 27.4361 36.9466 27.8039 36.5812L46.9285 17.5838C47.2958 17.2184 47.892 17.2184 48.2594 17.5838C48.6267 17.9487 48.6267 18.5405 48.2594 18.9059L29.1348 37.9037C28.9509 38.0859 28.7104 38.1775 28.4694 38.1775Z" fill="#8EA914"/>
<path d="M38.1244 44.9253C38.1244 55.4526 29.5898 63.9872 19.0625 63.9872C8.53458 63.9872 0 55.4526 0 44.9253C0 34.3974 8.53458 25.8628 19.0625 25.8628C29.5898 25.8628 38.1244 34.3974 38.1244 44.9253Z" fill="#F69946"/>
<path d="M10.1709 44.9253C10.1709 36.1587 16.0888 28.7756 24.1474 26.5503C22.5285 26.103 20.8232 25.8628 19.0625 25.8628C8.53458 25.8628 0 34.3974 0 44.9253C0 55.4532 8.53458 63.9872 19.0625 63.9872C20.8232 63.9872 22.5285 63.7476 24.1474 63.3003C16.0888 61.0744 10.1709 53.6914 10.1709 44.9253Z" fill="#EA8D39"/>
<path d="M43.0086 32.6128H34.0286C33.5118 32.6128 33.0928 32.1942 33.0928 31.6774V22.697C33.0928 22.1802 33.5118 21.7616 34.0286 21.7616C34.5449 21.7616 34.9639 22.1802 34.9639 22.697V30.742H43.0086C43.5249 30.742 43.944 31.1606 43.944 31.6774C43.944 32.1942 43.5249 32.6128 43.0086 32.6128Z" fill="#8EA914"/>
<path d="M45.0905 26.909H39.7369C39.2174 26.909 38.7966 26.4877 38.7966 25.9687V20.6155C38.7966 20.0961 39.2174 19.6748 39.7369 19.6748C40.2559 19.6748 40.6772 20.0961 40.6772 20.6155V25.0281H45.0905C45.61 25.0281 46.0308 25.4493 46.0308 25.9687C46.0308 26.4877 45.61 26.909 45.0905 26.909Z" fill="#8EA914"/>
<path d="M55.1811 49.6678C55.1811 57.5764 48.7697 63.9872 40.8611 63.9872C32.9526 63.9872 26.5417 57.5764 26.5417 49.6678C26.5417 41.7593 32.9526 35.3479 40.8611 35.3479C48.7697 35.3479 55.1811 41.7593 55.1811 49.6678Z" fill="#F69946"/>
<path d="M34.3921 49.6678C34.3921 43.12 38.7863 37.5993 44.7863 35.8929C43.5391 35.5381 42.2224 35.3479 40.8611 35.3479C32.9526 35.3479 26.5417 41.7593 26.5417 49.6678C26.5417 57.5758 32.9526 63.9872 40.8611 63.9872C42.2224 63.9872 43.5391 63.797 44.7863 63.4427C38.7863 61.7358 34.3921 56.2151 34.3921 49.6678Z" fill="#EA8D39"/>
<path d="M13.4983 37.5542C13.4983 39.6062 11.8348 41.2702 9.7823 41.2702C7.73031 41.2702 6.06686 39.6062 6.06686 37.5542C6.06686 35.5022 7.73031 33.8382 9.7823 33.8382C11.8348 33.8382 13.4983 35.5022 13.4983 37.5542Z" fill="#BB6F2A"/>
<path d="M49.2718 47.3903C49.2718 48.8385 48.0974 50.0129 46.6487 50.0129C45.2004 50.0129 44.0261 48.8385 44.0261 47.3903C44.0261 45.9415 45.2004 44.7672 46.6487 44.7672C48.0974 44.7672 49.2718 45.9415 49.2718 47.3903Z" fill="#BB6F2A"/>
<path d="M72.6817 36.72C71.7941 36.72 71.3503 36.2445 71.3503 35.2935V10.8717C71.3503 9.92073 71.7941 9.44524 72.6817 9.44524H87.7266C88.6776 9.44524 89.1531 9.85733 89.1531 10.6815V12.9259C89.1531 13.7501 88.6776 14.1622 87.7266 14.1622H76.9041V20.7812H86.1669C87.1179 20.7812 87.5934 21.1933 87.5934 22.0175V24.2619C87.5934 25.0861 87.1179 25.4982 86.1669 25.4982H76.9041V35.2935C76.9041 36.2445 76.4603 36.72 75.5727 36.72H72.6817ZM94.4026 36.72C93.6418 36.72 93.2614 36.3396 93.2614 35.5788V17.8902C93.2614 17.1293 93.6418 16.7489 94.4026 16.7489H97.4078C98.1686 16.7489 98.549 17.1293 98.549 17.8902V19.4498H98.6251C98.9548 18.6383 99.5063 17.9219 100.28 17.3005C101.053 16.6792 101.966 16.3685 103.019 16.3685C103.741 16.3685 104.337 16.4573 104.807 16.6348C105.25 16.7997 105.422 17.104 105.32 17.5478L104.788 19.8112C104.673 20.3184 104.331 20.4705 103.76 20.2677C103.431 20.1535 103.114 20.0965 102.809 20.0965C101.592 20.0965 100.584 20.8256 99.7853 22.2838C98.9865 23.742 98.587 25.8659 98.587 28.6555V35.5788C98.587 36.3396 98.2066 36.72 97.4458 36.72H94.4026ZM107.146 26.7345C107.146 23.5264 107.948 20.9968 109.552 19.1455C111.156 17.2942 113.423 16.3685 116.352 16.3685C119.75 16.3685 122.273 17.2435 123.922 18.9933C125.57 20.7432 126.394 23.5581 126.394 27.4382C126.394 28.199 126.039 28.5794 125.329 28.5794H112.776L112.794 28.7605C113.009 30.7605 113.523 32.0252 114.336 32.5546C115.173 33.0999 116.143 33.3725 117.246 33.3725C118.298 33.3725 119.103 33.233 119.661 32.9541C120.219 32.6751 120.688 32.2947 121.069 31.8128C121.5 31.2549 122.032 31.1662 122.666 31.5466L124.568 32.7068C125.317 33.1633 125.424 33.7085 124.892 34.3425C124.118 35.2682 123.212 35.9592 122.172 36.4157C121.132 36.8722 119.49 37.1004 117.246 37.1004C113.607 37.1004 111.013 36.1748 109.467 34.3235C107.92 32.4722 107.146 29.9426 107.146 26.7345ZM112.795 24.7754H121.069C121.069 23.406 120.726 22.287 120.042 21.4184C119.357 20.5498 118.266 20.1155 116.77 20.1155C115.578 20.1155 114.634 20.5308 113.936 21.3613C113.239 22.1919 112.858 23.3299 112.795 24.7754ZM130.141 35.3886C129.52 34.9448 129.349 34.4693 129.628 33.9621L130.598 32.1932C130.934 31.5706 131.454 31.4861 132.157 31.9397L132.196 31.965C132.918 32.4469 133.771 32.8019 134.754 33.0301C135.736 33.2584 136.634 33.3725 137.445 33.3725C138.016 33.3725 138.548 33.3154 139.043 33.2013C139.537 33.0872 139.956 32.8653 140.298 32.5356C140.64 32.2059 140.812 31.7241 140.812 31.0901C140.812 30.7097 140.71 30.3863 140.507 30.1201C140.304 29.8538 140.044 29.6509 139.727 29.5114C139.41 29.3719 139.074 29.2578 138.719 29.1691L138.572 29.1325C138.113 29.0161 137.487 28.8381 136.694 28.5985C135.812 28.3322 134.966 28.0215 134.155 27.6665C133.483 27.3748 132.826 26.9659 132.186 26.4397C131.546 25.9135 131.077 25.327 130.779 24.6803C130.481 24.0336 130.332 23.2348 130.332 22.2838C130.332 21.0031 130.702 19.8809 131.444 18.9172C132.186 17.9535 133.147 17.2879 134.326 16.9201C135.505 16.5524 136.976 16.3685 138.738 16.3685C139.93 16.3685 141.091 16.5397 142.219 16.8821L142.395 16.936C143.431 17.2584 144.178 17.5638 144.635 17.8521C145.382 18.3252 145.579 18.8288 145.225 19.363L144.045 21.0855C143.697 21.5832 143.141 21.6292 142.377 21.2235L142.333 21.1996C141.737 20.87 141.151 20.6037 140.574 20.4008C139.997 20.1979 139.353 20.0965 138.643 20.0965C138.161 20.0965 137.699 20.1472 137.255 20.2486C136.811 20.3501 136.434 20.5403 136.123 20.8192C135.812 21.0982 135.657 21.4659 135.657 21.9224C135.657 22.4043 135.8 22.7815 136.085 23.0541C136.37 23.3267 136.7 23.5264 137.074 23.6532L137.7 23.8644C137.852 23.9156 138.002 23.9657 138.149 24.0146C138.859 24.2429 139.575 24.4616 140.298 24.6708C141.021 24.88 141.756 25.1305 142.504 25.4221C143.151 25.6757 143.779 26.0371 144.387 26.5062C144.996 26.9754 145.44 27.5714 145.719 28.2941C145.998 29.0169 146.137 29.8411 146.137 30.7667C146.137 31.9967 145.77 33.1379 145.034 34.1904C144.299 35.2428 143.329 35.9909 142.124 36.4347C140.919 36.8785 139.518 37.1004 137.921 37.1004C136.133 37.1004 134.611 36.9736 133.356 36.72C132.1 36.4664 131.029 36.0226 130.141 35.3886ZM150.797 36.72C150.036 36.72 149.656 36.3396 149.656 35.5788V9.7876C149.656 9.02679 150.036 8.64639 150.797 8.64639H153.84C154.601 8.64639 154.982 9.02679 154.982 9.7876V17.4717C154.982 17.9789 154.956 18.4861 154.905 18.9933H155.02C155.603 17.9916 156.345 17.3037 157.245 16.9296C158.145 16.5556 159.229 16.3685 160.497 16.3685C162.475 16.3685 164.111 16.9899 165.405 18.2325C166.698 19.4752 167.345 21.7449 167.345 25.0417V35.5788C167.345 36.3396 166.964 36.72 166.203 36.72H163.16C162.399 36.72 162.019 36.3396 162.019 35.5788V26.4111C162.019 23.6469 161.829 21.9034 161.448 21.1806C161.068 20.4579 160.25 20.0965 158.995 20.0965C157.663 20.0965 156.662 20.6132 155.99 21.6466C155.325 22.6684 154.989 24.778 154.982 27.9755L154.982 35.5788C154.982 36.3396 154.601 36.72 153.84 36.72H150.797ZM171.244 18.2325C170.901 17.2435 171.111 16.7489 171.871 16.7489H175.276C175.859 16.7489 176.24 17.0723 176.417 17.719L179.289 28.3512C179.423 28.8242 179.542 29.4277 179.646 30.1618L179.696 30.5262C179.78 31.1557 179.822 31.5656 179.822 31.7558H179.936L180.012 31.4175C180.107 30.983 180.183 30.6144 180.239 30.3118L180.279 30.0918C180.356 29.6778 180.546 28.9201 180.849 27.8186L183.569 17.719C183.746 17.0723 184.127 16.7489 184.71 16.7489H188.115C188.863 16.7489 189.072 17.2435 188.742 18.2325L182.332 37.5189C181.584 39.7759 180.665 41.5384 179.575 42.8065C178.484 44.0745 176.969 44.7085 175.029 44.7085C173.964 44.7085 173.013 44.6197 172.176 44.4422C171.705 44.3431 171.519 44.0263 171.617 43.4917L172.043 41.3609C172.157 40.8157 172.48 40.6255 173.013 40.7903C173.406 40.9171 173.773 40.9805 174.116 40.9805C175.143 40.9805 175.926 40.4923 176.465 39.516C177.004 38.5396 177.362 37.7027 177.539 37.0053L177.596 36.72L171.244 18.2325Z" fill="#333333" stroke="#333333" stroke-width="0.695592"/>
<path d="M70.4077 52.7875C70.4077 52.0063 70.6092 51.3859 71.0123 50.9263C71.4153 50.4666 71.9905 50.2368 72.7377 50.2368C73.4849 50.2368 74.06 50.4666 74.4631 50.9263C74.8661 51.3859 75.0676 52.0063 75.0676 52.7875C75.0676 53.5687 74.8661 54.1891 74.4631 54.6488C74.06 55.1084 73.4849 55.3382 72.7377 55.3382C71.9905 55.3382 71.4153 55.1084 71.0123 54.6488C70.6092 54.1891 70.4077 53.5687 70.4077 52.7875ZM71.4674 52.7875C71.4674 53.3536 71.5687 53.7866 71.7714 54.0867C71.974 54.3867 72.2961 54.5367 72.7377 54.5367C73.1792 54.5367 73.5013 54.3867 73.704 54.0867C73.9066 53.7866 74.0079 53.3536 74.0079 52.7875C74.0079 52.2214 73.9066 51.7884 73.704 51.4884C73.5013 51.1884 73.1792 51.0383 72.7377 51.0383C72.2961 51.0383 71.974 51.1884 71.7714 51.4884C71.5687 51.7884 71.4674 52.2214 71.4674 52.7875ZM77.8062 55.2228C77.6477 55.2228 77.5684 55.1379 77.5684 54.968V50.607C77.5684 50.4372 77.6477 50.3523 77.8062 50.3523H78.3089C78.5036 50.3523 78.6508 50.4315 78.7504 50.59L80.4826 53.3717H80.5064C80.495 53.2358 80.4894 53.1 80.4894 52.9641V50.607C80.4894 50.4372 80.5686 50.3523 80.7271 50.3523H81.2434C81.4019 50.3523 81.4811 50.4372 81.4811 50.607V54.968C81.4811 55.1379 81.4019 55.2228 81.2434 55.2228H80.7747C80.58 55.2228 80.4328 55.1435 80.3331 54.985L78.567 52.1524H78.5432C78.5545 52.2882 78.5602 52.4241 78.5602 52.56V54.968C78.5602 55.1379 78.481 55.2228 78.3224 55.2228H77.8062ZM84.471 55.2228C84.3125 55.2228 84.2333 55.1379 84.2333 54.968V50.607C84.2333 50.4372 84.3125 50.3523 84.471 50.3523H85.0213C85.1571 50.3523 85.225 50.4372 85.225 50.607V54.3804H87.2052C87.375 54.3804 87.4599 54.454 87.4599 54.6012V55.002C87.4599 55.1492 87.375 55.2228 87.2052 55.2228H84.471ZM90.083 55.2228C89.9245 55.2228 89.8452 55.1379 89.8452 54.968V50.607C89.8452 50.4372 89.9245 50.3523 90.083 50.3523H90.5992C90.7577 50.3523 90.837 50.4372 90.837 50.607V54.968C90.837 55.1379 90.7577 55.2228 90.5992 55.2228H90.083ZM93.8269 55.2228C93.6684 55.2228 93.5891 55.1379 93.5891 54.968V50.607C93.5891 50.4372 93.6684 50.3523 93.8269 50.3523H94.3296C94.5243 50.3523 94.6715 50.4315 94.7711 50.59L96.5033 53.3717H96.5271C96.5157 53.2358 96.5101 53.1 96.5101 52.9641V50.607C96.5101 50.4372 96.5893 50.3523 96.7478 50.3523H97.2641C97.4226 50.3523 97.5018 50.4372 97.5018 50.607V54.968C97.5018 55.1379 97.4226 55.2228 97.2641 55.2228H96.7954C96.6006 55.2228 96.4535 55.1435 96.3538 54.985L94.5877 52.1524H94.5639C94.5752 52.2882 94.5809 52.4241 94.5809 52.56V54.968C94.5809 55.1379 94.5016 55.2228 94.3431 55.2228H93.8269ZM100.492 55.2228C100.333 55.2228 100.254 55.1379 100.254 54.968V50.607C100.254 50.4372 100.333 50.3523 100.492 50.3523H103.406C103.576 50.3523 103.661 50.4259 103.661 50.573V50.9738C103.661 51.121 103.576 51.1946 103.406 51.1946H101.246V52.2747H103.226C103.396 52.2747 103.481 52.3482 103.481 52.4954V52.8962C103.481 53.0434 103.396 53.117 103.226 53.117H101.246V54.3804H103.515C103.684 54.3804 103.769 54.454 103.769 54.6012V55.002C103.769 55.1492 103.684 55.2228 103.515 55.2228H100.492ZM110.058 52.7875C110.058 52.0063 110.262 51.3859 110.67 50.9263C111.077 50.4666 111.654 50.2368 112.402 50.2368C112.852 50.2368 113.206 50.2945 113.463 50.41C113.72 50.5255 113.946 50.7044 114.141 50.9466C114.258 51.0938 114.255 51.2082 114.13 51.2897L113.743 51.541C113.636 51.6118 113.522 51.5861 113.4 51.4638L113.38 51.4425C113.273 51.327 113.139 51.2308 112.976 51.1538C112.813 51.0768 112.633 51.0383 112.436 51.0383C111.96 51.0383 111.622 51.1884 111.42 51.4884C111.219 51.7884 111.118 52.2214 111.118 52.7875C111.118 53.3536 111.219 53.7866 111.42 54.0867C111.622 54.3867 111.96 54.5367 112.436 54.5367C112.667 54.5367 112.866 54.5135 113.033 54.4671C113.201 54.4206 113.359 54.3363 113.509 54.214V53.6061H112.772C112.602 53.6061 112.517 53.5325 112.517 53.3853V52.9845C112.517 52.8373 112.602 52.7637 112.772 52.7637H114.246C114.416 52.7637 114.501 52.8373 114.501 52.9845V54.7099C114.184 54.9431 113.864 55.1062 113.541 55.199C113.219 55.2918 112.839 55.3382 112.402 55.3382C111.666 55.3382 111.091 55.1084 110.678 54.6488C110.265 54.1891 110.058 53.5687 110.058 52.7875ZM117.328 55.2228C117.169 55.2228 117.09 55.1379 117.09 54.968V50.607C117.09 50.4372 117.169 50.3523 117.328 50.3523H118.9C119.6 50.3523 120.11 50.4604 120.432 50.6766C120.753 50.8929 120.914 51.2444 120.914 51.7312C120.914 52.0935 120.784 52.3822 120.524 52.5973C120.263 52.8124 119.933 52.9551 119.532 53.0253V53.0321C119.749 53.1136 119.913 53.2268 120.024 53.3717C120.135 53.5166 120.226 53.6434 120.296 53.7521L121.043 54.9307C121.168 55.1254 121.125 55.2228 120.914 55.2228H120.323C120.199 55.2228 120.097 55.156 120.018 55.0224L119.331 53.8778C119.257 53.7555 119.12 53.6213 118.922 53.4753C118.724 53.3292 118.528 53.2562 118.333 53.2562H118.082V54.968C118.082 55.1379 118.002 55.2228 117.844 55.2228H117.328ZM118.082 52.4139H118.69C119.142 52.4139 119.464 52.3624 119.656 52.2594C119.847 52.1563 119.943 51.9927 119.943 51.7686C119.943 51.524 119.851 51.365 119.666 51.2914C119.481 51.2178 119.21 51.181 118.853 51.181H118.082V52.4139ZM123.354 52.7875C123.354 52.0063 123.555 51.3859 123.958 50.9263C124.361 50.4666 124.937 50.2368 125.684 50.2368C126.431 50.2368 127.006 50.4666 127.409 50.9263C127.812 51.3859 128.014 52.0063 128.014 52.7875C128.014 53.5687 127.812 54.1891 127.409 54.6488C127.006 55.1084 126.431 55.3382 125.684 55.3382C124.937 55.3382 124.361 55.1084 123.958 54.6488C123.555 54.1891 123.354 53.5687 123.354 52.7875ZM124.414 52.7875C124.414 53.3536 124.515 53.7866 124.718 54.0867C124.92 54.3867 125.242 54.5367 125.684 54.5367C126.125 54.5367 126.447 54.3867 126.65 54.0867C126.853 53.7866 126.954 53.3536 126.954 52.7875C126.954 52.2214 126.853 51.7884 126.65 51.4884C126.447 51.1884 126.125 51.0383 125.684 51.0383C125.242 51.0383 124.92 51.1884 124.718 51.4884C124.515 51.7884 124.414 52.2214 124.414 52.7875ZM130.263 52.7875C130.263 52.0063 130.461 51.3859 130.858 50.9263C131.254 50.4666 131.826 50.2368 132.573 50.2368C133.003 50.2368 133.368 50.3036 133.666 50.4372C133.965 50.5708 134.176 50.7644 134.298 51.018C134.38 51.1855 134.366 51.2987 134.257 51.3576L133.85 51.575C133.707 51.652 133.59 51.6089 133.497 51.4459C133.438 51.3418 133.329 51.2478 133.169 51.164C133.009 51.0802 132.822 51.0383 132.607 51.0383C132.131 51.0383 131.798 51.1884 131.608 51.4884C131.418 51.7884 131.323 52.2214 131.323 52.7875C131.323 53.3536 131.418 53.7866 131.608 54.0867C131.798 54.3867 132.131 54.5367 132.607 54.5367C132.863 54.5367 133.078 54.4789 133.254 54.3635C133.416 54.2569 133.532 54.1551 133.602 54.0581L133.619 54.034C133.73 53.8642 133.848 53.8212 133.972 53.9049L134.38 54.1767C134.491 54.2514 134.502 54.3646 134.414 54.5163C134.282 54.7427 134.057 54.9363 133.738 55.0971C133.419 55.2579 133.03 55.3382 132.573 55.3382C131.837 55.3382 131.268 55.1084 130.866 54.6488C130.464 54.1891 130.263 53.5687 130.263 52.7875ZM137.234 55.2228C137.075 55.2228 136.996 55.1379 136.996 54.968V50.607C136.996 50.4372 137.075 50.3523 137.234 50.3523H140.148C140.318 50.3523 140.403 50.4259 140.403 50.573V50.9738C140.403 51.121 140.318 51.1946 140.148 51.1946H137.988V52.2747H139.968C140.138 52.2747 140.223 52.3482 140.223 52.4954V52.8962C140.223 53.0434 140.138 53.117 139.968 53.117H137.988V54.3804H140.257C140.426 54.3804 140.511 54.454 140.511 54.6012V55.002C140.511 55.1492 140.426 55.2228 140.257 55.2228H137.234ZM143.247 55.2228C143.088 55.2228 143.009 55.1379 143.009 54.968V50.607C143.009 50.4372 143.088 50.3523 143.247 50.3523H144.819C145.519 50.3523 146.029 50.4604 146.351 50.6766C146.672 50.8929 146.833 51.2444 146.833 51.7312C146.833 52.0935 146.703 52.3822 146.443 52.5973C146.182 52.8124 145.852 52.9551 145.451 53.0253V53.0321C145.668 53.1136 145.832 53.2268 145.943 53.3717C146.054 53.5166 146.145 53.6434 146.215 53.7521L146.962 54.9307C147.087 55.1254 147.044 55.2228 146.833 55.2228H146.242C146.118 55.2228 146.016 55.156 145.936 55.0224L145.25 53.8778C145.176 53.7555 145.039 53.6213 144.841 53.4753C144.643 53.3292 144.447 53.2562 144.252 53.2562H144.001V54.968C144.001 55.1379 143.921 55.2228 143.763 55.2228H143.247ZM144.001 52.4139H144.608C145.061 52.4139 145.383 52.3624 145.575 52.2594C145.766 52.1563 145.862 51.9927 145.862 51.7686C145.862 51.524 145.77 51.365 145.585 51.2914C145.4 51.2178 145.129 51.181 144.772 51.181H144.001V52.4139ZM149.327 50.6444C149.212 50.4496 149.265 50.3523 149.487 50.3523H150.081C150.199 50.3523 150.303 50.4304 150.394 50.5866L151.202 51.9946C151.228 52.0411 151.26 52.0976 151.297 52.1643C151.397 52.342 151.454 52.5147 151.47 52.6822H151.484C151.5 52.5147 151.557 52.342 151.657 52.1643L151.837 51.8467L152.561 50.5866C152.651 50.4304 152.755 50.3523 152.873 50.3523H153.467C153.689 50.3523 153.743 50.4496 153.627 50.6444L151.973 53.4396V55.036C151.973 55.1605 151.894 55.2228 151.735 55.2228H151.219C151.06 55.2228 150.981 55.1605 150.981 55.036V53.4396L149.327 50.6444ZM159.936 54.8593C159.796 54.7529 159.762 54.6454 159.834 54.5367L160.096 54.1427C160.178 54.0195 160.296 54.0077 160.451 54.1073L160.473 54.1223C160.6 54.2106 160.766 54.3018 160.971 54.3957C161.175 54.4897 161.391 54.5367 161.618 54.5367C161.776 54.5367 161.929 54.5186 162.076 54.4823C162.223 54.4461 162.335 54.3759 162.412 54.2718C162.489 54.1676 162.528 54.0442 162.528 53.9015C162.528 53.7997 162.511 53.7102 162.477 53.6332C162.443 53.5562 162.387 53.4928 162.31 53.443C162.233 53.3932 162.154 53.3513 162.073 53.3174C161.93 53.2585 161.751 53.2002 161.534 53.1424C161.318 53.0847 161.105 53.0151 160.894 52.9336C160.706 52.8611 160.534 52.7615 160.378 52.6347C160.222 52.5079 160.1 52.3652 160.014 52.2067C159.928 52.0482 159.885 51.8365 159.885 51.5716C159.885 51.2568 159.987 50.9874 160.191 50.7632C160.395 50.5391 160.629 50.3953 160.894 50.3319C161.159 50.2685 161.426 50.2368 161.696 50.2368C161.963 50.2368 162.239 50.2775 162.523 50.3591C162.807 50.4406 163.021 50.5425 163.166 50.6647C163.309 50.7847 163.344 50.8934 163.272 50.9908L162.996 51.361C162.908 51.4815 162.791 51.4967 162.646 51.4067L162.623 51.3916C162.523 51.3236 162.387 51.2478 162.214 51.164C162.04 51.0802 161.86 51.0383 161.672 51.0383C161.538 51.0383 161.415 51.0497 161.303 51.0723C161.191 51.095 161.092 51.1493 161.006 51.2353C160.92 51.3214 160.877 51.4278 160.877 51.5546C160.877 51.6769 160.909 51.7759 160.972 51.8518C161.036 51.9276 161.106 51.9843 161.183 52.0216C161.26 52.059 161.338 52.0901 161.417 52.115L161.872 52.2607C161.941 52.2828 162.009 52.3039 162.073 52.3239C162.265 52.3839 162.443 52.4501 162.606 52.5226C162.832 52.6245 163.006 52.7264 163.126 52.8283C163.246 52.9302 163.345 53.0694 163.423 53.246C163.501 53.4227 163.54 53.6332 163.54 53.8778C163.54 54.2401 163.424 54.5395 163.193 54.7761C162.963 55.0128 162.706 55.1656 162.424 55.2347C162.142 55.3037 161.868 55.3382 161.601 55.3382C161.207 55.3382 160.886 55.3003 160.639 55.2245C160.393 55.1486 160.158 55.0269 159.936 54.8593ZM165.813 51.2218C165.643 51.2218 165.558 51.1482 165.558 51.001V50.573C165.558 50.4259 165.643 50.3523 165.813 50.3523H169.305C169.475 50.3523 169.559 50.4259 169.559 50.573V51.001C169.559 51.1482 169.475 51.2218 169.305 51.2218H168.055V55.036C168.055 55.1605 167.998 55.2228 167.885 55.2228H167.233C167.12 55.2228 167.063 55.1605 167.063 55.036V51.2218H165.813ZM171.632 52.7875C171.632 52.0063 171.834 51.3859 172.237 50.9263C172.64 50.4666 173.215 50.2368 173.962 50.2368C174.709 50.2368 175.285 50.4666 175.688 50.9263C176.091 51.3859 176.292 52.0063 176.292 52.7875C176.292 53.5687 176.091 54.1891 175.688 54.6488C175.285 55.1084 174.709 55.3382 173.962 55.3382C173.215 55.3382 172.64 55.1084 172.237 54.6488C171.834 54.1891 171.632 53.5687 171.632 52.7875ZM172.692 52.7875C172.692 53.3536 172.793 53.7866 172.996 54.0867C173.199 54.3867 173.521 54.5367 173.962 54.5367C174.404 54.5367 174.726 54.3867 174.929 54.0867C175.131 53.7866 175.233 53.3536 175.233 52.7875C175.233 52.2214 175.131 51.7884 174.929 51.4884C174.726 51.1884 174.404 51.0383 173.962 51.0383C173.521 51.0383 173.199 51.1884 172.996 51.4884C172.793 51.7884 172.692 52.2214 172.692 52.7875ZM179.031 55.2228C178.872 55.2228 178.793 55.1379 178.793 54.968V50.607C178.793 50.4372 178.872 50.3523 179.031 50.3523H180.603C181.303 50.3523 181.814 50.4604 182.135 50.6766C182.457 50.8929 182.617 51.2444 182.617 51.7312C182.617 52.0935 182.487 52.3822 182.227 52.5973C181.966 52.8124 181.636 52.9551 181.235 53.0253V53.0321C181.452 53.1136 181.617 53.2268 181.728 53.3717C181.839 53.5166 181.929 53.6434 181.999 53.7521L182.746 54.9307C182.871 55.1254 182.828 55.2228 182.617 55.2228H182.026C181.902 55.2228 181.8 55.156 181.721 55.0224L181.035 53.8778C180.96 53.7555 180.824 53.6213 180.625 53.4753C180.427 53.3292 180.231 53.2562 180.036 53.2562H179.785V54.968C179.785 55.1379 179.706 55.2228 179.547 55.2228H179.031ZM179.785 52.4139H180.393C180.846 52.4139 181.168 52.3624 181.359 52.2594C181.55 52.1563 181.646 51.9927 181.646 51.7686C181.646 51.524 181.554 51.365 181.369 51.2914C181.185 51.2178 180.914 51.181 180.556 51.181H179.785V52.4139ZM185.546 55.2228C185.388 55.2228 185.308 55.1379 185.308 54.968V50.607C185.308 50.4372 185.388 50.3523 185.546 50.3523H188.46C188.63 50.3523 188.715 50.4259 188.715 50.573V50.9738C188.715 51.121 188.63 51.1946 188.46 51.1946H186.3V52.2747H188.28C188.45 52.2747 188.535 52.3482 188.535 52.4954V52.8962C188.535 53.0434 188.45 53.117 188.28 53.117H186.3V54.3804H188.569C188.739 54.3804 188.824 54.454 188.824 54.6012V55.002C188.824 55.1492 188.739 55.2228 188.569 55.2228H185.546Z" fill="#7A7A7A" stroke="#7B7B7B" stroke-width="0.139118"/>
</g>
</g>
<defs>
<clipPath id="clip0_2_31">
<rect width="189.34" height="63.98" fill="white"/>
</clipPath>
<clipPath id="clip1_2_31">
<rect width="189.34" height="63.9944" fill="white" transform="translate(0 -0.00720215)"/>
</clipPath>
</defs>
</svg>
