<svg>
    <symbol id="icon-facebook" viewBox="0 0 31 32">
        <path fill="#a49d98" style="fill: var(--color1, #a49d98)" d="M13.151 24.679h3.158v-8.674h2.369l0.469-2.71h-2.838v-1.964c0-0.633 0.41-1.298 0.994-1.298h1.613v-2.71h-1.976v0.012c-3.092 0.112-3.728 1.903-3.783 3.785h-0.006v2.176h-1.58v2.71h1.58v8.674z"></path>
    </symbol>
    <symbol id="icon-twitter" viewBox="0 0 31 32">
        <path fill="#a49d98" style="fill: var(--color1, #a49d98)" d="M22.704 10.492c-0.448 0.287-1.477 0.704-1.985 0.704-0.58-0.605-1.396-0.983-2.301-0.983-1.758 0-3.183 1.425-3.183 3.182 0 0.244 0.028 0.482 0.081 0.71-2.384-0.063-4.992-1.258-6.562-3.303-0.965 1.671-0.13 3.529 0.965 4.206-0.375 0.028-1.065-0.043-1.39-0.36-0.022 1.109 0.511 2.578 2.455 3.111-0.374 0.201-1.037 0.144-1.325 0.101 0.101 0.936 1.412 2.16 2.845 2.16-0.511 0.591-2.433 1.663-4.59 1.322 1.465 0.891 3.172 1.407 4.979 1.407 5.135 0 9.123-4.162 8.908-9.296-0.001-0.006-0.001-0.011-0.001-0.018 0-0.013 0.001-0.026 0.001-0.040 0-0.016-0.001-0.031-0.002-0.046 0.467-0.32 1.095-0.885 1.543-1.63-0.26 0.143-1.040 0.43-1.765 0.501 0.466-0.251 1.155-1.074 1.326-1.729z"></path>
    </symbol>
    <symbol id="icon-youtube" viewBox="0 0 31 32">
        <path fill="#a49d98" style="fill: var(--color1, #a49d98)" d="M23.945 11.649c-0.146-1.28-0.451-1.653-0.667-1.826-0.343-0.27-0.966-0.367-1.799-0.424-1.335-0.090-3.604-0.148-6.050-0.148-2.453 0-4.716 0.051-6.051 0.148-0.833 0.058-1.455 0.154-1.799 0.424-0.216 0.174-0.515 0.547-0.667 1.826-0.216 1.846-0.216 6.051 0 7.897 0.153 1.28 0.451 1.653 0.667 1.826 0.343 0.27 0.966 0.367 1.799 0.424 1.335 0.090 3.597 0.148 6.051 0.148s4.716-0.058 6.050-0.148c0.833-0.058 1.455-0.154 1.799-0.424 0.216-0.167 0.515-0.547 0.667-1.826 0.216-1.846 0.216-6.051 0-7.897zM13.331 18.356v-5.524l5.237 2.759-5.237 2.765z"></path>
    </symbol>
    <symbol id="icon-viber" viewBox="0 0 31 32">
        <path fill="#a49d98" style="fill: var(--color1, #a49d98)" d="M13.482 8.286c-3.084 0-5.587 2.461-5.587 5.497v2.752c0 2.393 1.555 4.43 3.725 5.184v1.996l1.889-1.683h3.079c3.084 0 5.587-2.461 5.587-5.497v-2.752c0-3.035-2.502-5.497-5.587-5.497h-3.105zM16.575 18.935c0 0-2.316-1.18-3.558-2.425s-2.017-2.619-2.017-2.619c-0.256-0.692-0.293-1.308 0.223-1.75l0.937-0.802 1.493 1.69c0.225 0.255 0.2 0.639-0.060 0.862l-0.381 0.326c0.633 2.022 1.843 2.321 2.77 2.626l0.22-0.333c0.188-0.285 0.571-0.363 0.859-0.179l1.908 1.219-0.676 1.024c-0.238 0.36-0.636 0.557-1.043 0.557-0.231 0-0.465-0.064-0.674-0.197zM16.833 14.701c-0.136 0-0.26-0.088-0.299-0.223-0.13-0.455-0.499-0.819-0.961-0.948-0.165-0.046-0.26-0.215-0.214-0.377s0.219-0.257 0.384-0.21c0.668 0.187 1.2 0.712 1.389 1.37 0.047 0.162-0.050 0.331-0.215 0.377-0.028 0.008-0.056 0.011-0.084 0.011zM18.105 14.767c-0.136 0-0.26-0.088-0.299-0.223-0.308-1.075-1.178-1.933-2.27-2.238-0.165-0.046-0.26-0.215-0.214-0.377s0.219-0.257 0.383-0.21c1.298 0.363 2.331 1.383 2.697 2.66 0.047 0.162-0.049 0.331-0.215 0.377-0.028 0.008-0.056 0.011-0.084 0.011zM19.547 14.899c-0.136 0-0.26-0.088-0.299-0.223-0.522-1.821-1.996-3.274-3.846-3.793-0.165-0.046-0.26-0.215-0.214-0.377s0.219-0.257 0.384-0.21c2.056 0.575 3.693 2.19 4.273 4.214 0.047 0.162-0.050 0.331-0.215 0.377-0.028 0.008-0.056 0.011-0.084 0.011z"></path>
    </symbol>
    <symbol id="icon-messager" viewBox="0 0 31 32">
        <path fill="#a49d98" style="fill: var(--color1, #a49d98)" d="M23.143 10.855v10.931h-15.429v-10.931l7.714 6.75 7.714-6.75zM22.41 10.214h-13.964l6.982 6.11 6.982-6.11z"></path>
    </symbol>
</svg>    