<svg aria-hidden="true" style="position: absolute; width: 0; height: 0; overflow: hidden;" version="1.1" xmlns="http://www.w3.org/2000/svg" xmlns:xlink="http://www.w3.org/1999/xlink">
    <defs>
        <symbol id="icon-twitter" viewBox="0 0 31 32">
            <path fill="#a49d98" style="fill: var(--color1, #a49d98)" d="M22.704 10.492c-0.448 0.287-1.477 0.704-1.985 0.704-0.58-0.605-1.396-0.983-2.301-0.983-1.758 0-3.183 1.425-3.183 3.182 0 0.244 0.028 0.482 0.081 0.71-2.384-0.063-4.992-1.258-6.562-3.303-0.965 1.671-0.13 3.529 0.965 4.206-0.375 0.028-1.065-0.043-1.39-0.36-0.022 1.109 0.511 2.578 2.455 3.111-0.374 0.201-1.037 0.144-1.325 0.101 0.101 0.936 1.412 2.16 2.845 2.16-0.511 0.591-2.433 1.663-4.59 1.322 1.465 0.891 3.172 1.407 4.979 1.407 5.135 0 9.123-4.162 8.908-9.296-0.001-0.006-0.001-0.011-0.001-0.018 0-0.013 0.001-0.026 0.001-0.040 0-0.016-0.001-0.031-0.002-0.046 0.467-0.32 1.095-0.885 1.543-1.63-0.26 0.143-1.040 0.43-1.765 0.501 0.466-0.251 1.155-1.074 1.326-1.729z"></path>
        </symbol>
        <symbol id="icon-youtube" viewBox="0 0 31 32">
            <path fill="#a49d98" style="fill: var(--color1, #a49d98)" d="M23.945 11.649c-0.146-1.28-0.451-1.653-0.667-1.826-0.343-0.27-0.966-0.367-1.799-0.424-1.335-0.090-3.604-0.148-6.050-0.148-2.453 0-4.716 0.051-6.051 0.148-0.833 0.058-1.455 0.154-1.799 0.424-0.216 0.174-0.515 0.547-0.667 1.826-0.216 1.846-0.216 6.051 0 7.897 0.153 1.28 0.451 1.653 0.667 1.826 0.343 0.27 0.966 0.367 1.799 0.424 1.335 0.090 3.597 0.148 6.051 0.148s4.716-0.058 6.050-0.148c0.833-0.058 1.455-0.154 1.799-0.424 0.216-0.167 0.515-0.547 0.667-1.826 0.216-1.846 0.216-6.051 0-7.897zM13.331 18.356v-5.524l5.237 2.759-5.237 2.765z"></path>
        </symbol>
        <symbol id="icon-viber" viewBox="0 0 31 32">
            <path fill="#a49d98" style="fill: var(--color1, #a49d98)" d="M13.482 8.286c-3.084 0-5.587 2.461-5.587 5.497v2.752c0 2.393 1.555 4.43 3.725 5.184v1.996l1.889-1.683h3.079c3.084 0 5.587-2.461 5.587-5.497v-2.752c0-3.035-2.502-5.497-5.587-5.497h-3.105zM16.575 18.935c0 0-2.316-1.18-3.558-2.425s-2.017-2.619-2.017-2.619c-0.256-0.692-0.293-1.308 0.223-1.75l0.937-0.802 1.493 1.69c0.225 0.255 0.2 0.639-0.060 0.862l-0.381 0.326c0.633 2.022 1.843 2.321 2.77 2.626l0.22-0.333c0.188-0.285 0.571-0.363 0.859-0.179l1.908 1.219-0.676 1.024c-0.238 0.36-0.636 0.557-1.043 0.557-0.231 0-0.465-0.064-0.674-0.197zM16.833 14.701c-0.136 0-0.26-0.088-0.299-0.223-0.13-0.455-0.499-0.819-0.961-0.948-0.165-0.046-0.26-0.215-0.214-0.377s0.219-0.257 0.384-0.21c0.668 0.187 1.2 0.712 1.389 1.37 0.047 0.162-0.050 0.331-0.215 0.377-0.028 0.008-0.056 0.011-0.084 0.011zM18.105 14.767c-0.136 0-0.26-0.088-0.299-0.223-0.308-1.075-1.178-1.933-2.27-2.238-0.165-0.046-0.26-0.215-0.214-0.377s0.219-0.257 0.383-0.21c1.298 0.363 2.331 1.383 2.697 2.66 0.047 0.162-0.049 0.331-0.215 0.377-0.028 0.008-0.056 0.011-0.084 0.011zM19.547 14.899c-0.136 0-0.26-0.088-0.299-0.223-0.522-1.821-1.996-3.274-3.846-3.793-0.165-0.046-0.26-0.215-0.214-0.377s0.219-0.257 0.384-0.21c2.056 0.575 3.693 2.19 4.273 4.214 0.047 0.162-0.050 0.331-0.215 0.377-0.028 0.008-0.056 0.011-0.084 0.011z"></path>
        </symbol>
        <symbol id="icon-messager" viewBox="0 0 31 32">
            <path fill="#a49d98" style="fill: var(--color1, #a49d98)" d="M23.143 10.855v10.931h-15.429v-10.931l7.714 6.75 7.714-6.75zM22.41 10.214h-13.964l6.982 6.11 6.982-6.11z"></path>
        </symbol>
        <symbol id="icon-facebook" viewBox="0 0 31 32">
            <path fill="#a49d98" style="fill: var(--color1, #a49d98)" d="M13.151 24.679h3.158v-8.674h2.369l0.469-2.71h-2.838v-1.964c0-0.633 0.41-1.298 0.994-1.298h1.613v-2.71h-1.976v0.012c-3.092 0.112-3.728 1.903-3.783 3.785h-0.006v2.176h-1.58v2.71h1.58v8.674z"></path>
        </symbol>
        <symbol id="icon-fresh-fruit" viewBox="0 0 33 32">
            <path fill="#f6f8f0" style="fill: var(--color1, #f6f8f0)" d="M18.613 3.659c-7.953-1.402-16.522 4.129-17.924 12.077s-0.503 13.786 7.45 15.188c7.953 1.402 20.754-3.369 22.156-11.318s-3.729-14.545-11.682-15.948z"></path>
            <path fill="#f6f8f0" style="fill: var(--color1, #f6f8f0)" d="M24.972 30.924c0.109 0.618 0.727 1.098 1.329 0.992s0.94-0.782 0.831-1.399c-0.109-0.618-0.73-0.971-1.333-0.865s-0.937 0.654-0.828 1.272z"></path>
            <path fill="#f6f8f0" style="fill: var(--color1, #f6f8f0)" d="M31.993 26.692c-0.963-0.675-2.418-0.496-3.073 0.439s-0.963 2.545 0 3.22c0.963 0.675 3.012 0.053 3.666-0.882s0.37-2.102-0.593-2.777z"></path>
            <path fill="#f6f8f0" style="fill: var(--color1, #f6f8f0)" d="M0.084 2.007c0.15 0.849 1.013 1.508 1.856 1.359s1.392-0.451 1.242-1.301c-0.15-0.849-1.091-1.961-1.934-1.812s-1.314 0.904-1.164 1.753z"></path>
            <path fill="#a9c623" style="fill: var(--color2, #a9c623)" d="M32.565 10.236c-0.021-0.116-0.082-0.221-0.172-0.297-0.843-0.713-0.985-1.5-1.1-2.132l-0.015-0.082c-0.040-0.216-0.213-0.382-0.43-0.412-0.075-0.011-0.154-0.016-0.236-0.016-0.484 0-1.167 0.204-1.6 0.66-0.074 0.078-0.121 0.177-0.135 0.283-0.036 0.274-0.055 0.524-0.072 0.745-0.062 0.833-0.117 0.921-0.371 1.001-0.159 0.050-0.283 0.175-0.333 0.334-0.239 0.769-0.556 1.505-0.939 2.2-0.189-0.362-0.399-0.687-0.594-0.99-0.476-0.741-0.853-1.326-0.724-2.051 0.417-2.35 0.205-4.12-0.629-5.262-0.464-0.636-1.126-1.069-1.93-1.271 0.16-1.249 1.028-1.816 1.508-1.945 0.272-0.073 0.433-0.352 0.36-0.624s-0.352-0.433-0.623-0.36c-0.992 0.266-2.051 1.242-2.254 2.801-0.812-0.002-1.55 0.246-2.157 0.731-1.11 0.887-1.78 2.535-1.993 4.898-0.064 0.711-0.524 1.126-1.16 1.7-0.52 0.469-1.098 0.992-1.562 1.783-0.578-0.235-1.197-0.388-1.844-0.443 0.183-1.199 1.027-1.747 1.498-1.873 0.272-0.073 0.433-0.352 0.36-0.624s-0.352-0.433-0.623-0.36c-0.256 0.069-0.516 0.185-0.765 0.346-0.116-0.572-0.396-1.108-0.82-1.533-0.568-0.569-1.324-0.882-2.128-0.882-0.263 0-0.525 0.034-0.779 0.102-0.176 0.047-0.313 0.185-0.36 0.361-0.277 1.036 0.022 2.151 0.779 2.908 0.527 0.527 1.215 0.834 1.953 0.876-0.064 0.211-0.112 0.435-0.14 0.673-3.281 0.247-5.875 2.996-5.875 6.34 0 3.506 2.851 6.358 6.355 6.358 1.302 0 2.543-0.387 3.605-1.122 0.167 0.073 0.335 0.144 0.504 0.211 1.532 0.605 3.080 0.911 4.602 0.911 2.447 0 4.719-0.8 6.569-2.314 1.934-1.582 3.359-3.923 4.121-6.769 0.249-0.928 0.468-3.116 0.149-4.862zM17.649 10.905c0.685-0.618 1.393-1.257 1.493-2.365 0.187-2.076 0.73-3.487 1.614-4.194 0.525-0.42 1.174-0.581 1.929-0.48 0.746 0.1 1.321 0.42 1.711 0.953 0.664 0.908 0.815 2.417 0.448 4.482-0.198 1.118 0.345 1.963 0.871 2.78 0.295 0.458 0.598 0.93 0.804 1.479-1.716 2.479-4.319 4.286-7.184 4.948 0.024-0.227 0.037-0.456 0.037-0.685 0-2.297-1.224-4.314-3.054-5.431 0.381-0.627 0.863-1.063 1.332-1.487zM11.442 9.214c-0.428-0.428-0.634-1.028-0.572-1.621 0.070-0.007 0.141-0.011 0.212-0.011 0.532 0 1.032 0.207 1.408 0.583 0.428 0.428 0.634 1.028 0.572 1.621-0.070 0.007-0.141 0.011-0.212 0.011h-0c-0.532 0-1.032-0.207-1.408-0.583zM13.016 23.162c-2.943 0-5.337-2.395-5.337-5.339s2.394-5.339 5.337-5.339c2.943 0 5.337 2.395 5.337 5.339 0 0.294-0.024 0.587-0.071 0.875-0.327 0.042-0.657 0.069-0.988 0.080 0.070-0.312 0.106-0.631 0.106-0.955 0-0.574-0.11-1.133-0.328-1.664-0.107-0.26-0.404-0.385-0.664-0.278s-0.384 0.404-0.278 0.664c0.167 0.407 0.252 0.837 0.252 1.277 0 0.32-0.045 0.635-0.134 0.939-0.729-0.047-1.458-0.167-2.177-0.36-0.146-0.039-0.303-0.011-0.426 0.077-0.452 0.321-0.908 0.726-1.179 1.501-0.070 0.2-0.009 0.422 0.153 0.558 0.935 0.786 1.912 1.452 2.919 1.993-0.77 0.415-1.628 0.632-2.521 0.632zM31.432 14.835c-1.397 5.215-5.025 8.328-9.706 8.328-2.733 0-5.617-1.121-8.16-3.164 0.135-0.242 0.301-0.409 0.48-0.551 0.956 0.236 1.928 0.355 2.893 0.355 2.732 0 5.366-0.931 7.618-2.694 1.145-0.896 2.137-1.975 2.932-3.172 0.009-0.013 0.018-0.026 0.027-0.040 0.627-0.952 1.13-1.978 1.484-3.045 0.713-0.359 0.768-1.087 0.821-1.792 0.012-0.161 0.024-0.327 0.043-0.501 0.135-0.098 0.315-0.176 0.495-0.216 0.136 0.648 0.399 1.479 1.233 2.246 0.236 1.5 0.065 3.405-0.16 4.245z"></path>
            <path fill="#a9c623" style="fill: var(--color2, #a9c623)" d="M23.146 4.962c-0.258-0.107-0.555 0.013-0.663 0.27s0.013 0.551 0.271 0.659c0.368 0.154 0.572 1.259 0.248 3.074-0.049 0.274 0.135 0.535 0.41 0.584 0.030 0.005 0.060 0.008 0.089 0.008 0.241 0 0.454-0.172 0.498-0.416 0.29-1.623 0.377-3.666-0.853-4.179z"></path>
            <path fill="#a9c623" style="fill: var(--color2, #a9c623)" d="M26.397 19.46c-0.167-0.223-0.483-0.268-0.705-0.1-0 0-0.002 0.002-0.003 0.002-0.224 0.165-0.272 0.479-0.108 0.704 0.098 0.135 0.251 0.206 0.407 0.206 0.103 0 0.208-0.032 0.297-0.097l0.012-0.009c0.222-0.167 0.267-0.483 0.1-0.706z"></path>
            <path fill="#a9c623" style="fill: var(--color2, #a9c623)" d="M25.284 20.252c-0.128-0.244-0.433-0.341-0.683-0.216-1.737 0.869-3.202 0.835-3.224 0.834-0.279-0.009-0.515 0.203-0.526 0.477s0.207 0.505 0.487 0.516c0.008 0 0.035 0.001 0.080 0.001 0.363 0 1.874-0.058 3.644-0.944 0.25-0.125 0.348-0.424 0.221-0.668z"></path>
            <path fill="#a9c623" style="fill: var(--color2, #a9c623)" d="M16.073 14.786l-0.016-0.017c-0.196-0.195-0.512-0.194-0.707 0.002s-0.194 0.512 0.002 0.707l0.011 0.011c0.098 0.099 0.227 0.148 0.355 0.148 0.127 0 0.254-0.048 0.352-0.145 0.196-0.194 0.198-0.511 0.004-0.707z"></path>
        </symbol>
        <symbol id="icon-vegetables" viewBox="0 0 33 32">
            <path fill="#f6f8f0" style="fill: var(--color1, #f6f8f0)" d="M19.062 4.978c-7.811-1.377-17.492 1.041-18.869 8.848s4.954 16.482 12.765 17.86c7.811 1.377 15.668-3.185 17.044-10.992s-3.129-14.338-10.941-15.716z"></path>
            <path fill="#f6f8f0" style="fill: var(--color1, #f6f8f0)" d="M26.093 30.517c0.107 0.607 0.714 1.079 1.306 0.975s0.923-0.768 0.816-1.375c-0.107-0.607-0.717-0.953-1.309-0.849s-0.92 0.642-0.813 1.249z"></path>
            <path fill="#f6f8f0" style="fill: var(--color1, #f6f8f0)" d="M3.833 2.324c-0.946-0.663-2.375-0.487-3.018 0.431s-0.946 2.5 0 3.162c0.946 0.663 2.958 0.052 3.601-0.866s0.363-2.065-0.583-2.727z"></path>
            <path fill="#f6f8f0" style="fill: var(--color1, #f6f8f0)" d="M30.091 27.429c0.147 0.834 0.995 1.481 1.823 1.335s1.367-0.443 1.22-1.278c-0.147-0.834-1.072-1.926-1.9-1.78s-1.29 0.888-1.143 1.722z"></path>
            <path fill="#a9c623" style="fill: var(--color2, #a9c623)" d="M32.592 8.641c-0.119-0.344-0.319-0.646-0.581-0.887 0.355-0.399 0.573-0.797 0.659-1.197 0.097-0.453 0.065-1.141-0.642-1.847-0.139-0.139-0.281-0.238-0.409-0.312 0.653-0.926 0.566-2.218-0.263-3.046s-2.122-0.915-3.048-0.262c-0.073-0.128-0.173-0.27-0.312-0.409-0.706-0.706-1.395-0.738-1.848-0.641-0.4 0.086-0.798 0.304-1.197 0.659-0.97-1.072-2.751-0.873-3.472 0.374-0.103-0.066-0.228-0.131-0.376-0.182-0.848-0.293-1.424-0.056-1.757 0.195-0.942 0.709-1.339 2.522-1.21 5.539-4.369 1.376-12.362 13.040-8.895 16.831 1.65 1.527 4.4 0.753 6.72-0.197 3.833-1.72 8.519-4.875 10.122-8.693 2.252 0.129 4.835-0.14 5.542-1.209 0.353-0.411 0.505-1.348 0.012-2.132 0.367-0.214 0.663-0.533 0.854-0.925 0.254-0.523 0.291-1.112 0.102-1.658v0zM26.347 0.969c0.209-0.045 0.539-0.054 0.977 0.384 0.33 0.308 0.227 0.775 0.743 0.904 0.308 0.060 0.529-0.16 0.601-0.233 0.556-0.555 1.46-0.555 2.016 0 0.55 0.527 0.55 1.488-0 2.015-0.072 0.072-0.293 0.293-0.233 0.601 0.059 0.302 0.314 0.411 0.483 0.482 0.132 0.056 0.282 0.12 0.422 0.26 0.438 0.438 0.429 0.767 0.384 0.976-0.219 1.456-4.506 3.302-5.998 3.835-0.146-0.257-0.315-0.514-0.508-0.77l1.652-1.126c0.217-0.148 0.273-0.443 0.125-0.66s-0.444-0.273-0.66-0.125l-1.731 1.179c-0.096-0.103-0.195-0.206-0.298-0.31s-0.207-0.203-0.31-0.298l1.18-1.73c0.148-0.217 0.092-0.512-0.125-0.66s-0.512-0.092-0.66 0.125l-1.126 1.651c-0.256-0.193-0.513-0.362-0.77-0.508 0.541-1.511 2.382-5.774 3.837-5.995v0zM19.917 1.844c0.14-0.105 0.383-0.226 0.875-0.056 0.158 0.055 0.264 0.147 0.357 0.228 0.124 0.108 0.331 0.288 0.623 0.21 0.297-0.079 0.395-0.362 0.427-0.454 0.106-0.307 0.327-0.554 0.622-0.698s0.626-0.164 0.933-0.058c0.216 0.075 0.404 0.207 0.546 0.382-1.053 1.268-2.179 3.897-2.652 5.164-0.519-0.189-1.044-0.286-1.577-0.293-0.331-0.004-0.66 0.025-0.994 0.089-0.112-3.277 0.471-4.234 0.841-4.513v0zM22.891 17.478c-1.209 1.208-2.755 2.395-4.372 3.383l-1.414-1.413c-0.463-0.428-1.1 0.209-0.672 0.672l1.238 1.237c-2.359 1.384-6.454 2.846-7.76 1.428-0.633-0.633-0.748-1.847-0.356-3.457l1.037 1.037c0.463 0.428 1.1-0.209 0.672-0.672l-1.405-1.404c1.054-3.043 3.131-6.221 5.361-8.476 0.401-0.401 0.793-0.755 1.177-1.062l1.309 1.308c0.463 0.428 1.1-0.209 0.672-0.672l-1.204-1.203c1.014-0.66 1.951-0.977 2.882-0.967 2.226-0.119 5.549 3.202 5.43 5.427 0.020 1.487-0.829 3.068-2.596 4.834zM31.635 9.884c-0.143 0.295-0.391 0.515-0.698 0.621-0.093 0.032-0.375 0.13-0.455 0.426-0.078 0.292 0.102 0.499 0.21 0.622 0.081 0.093 0.173 0.199 0.228 0.357 0.17 0.492 0.049 0.735-0.056 0.875-0.279 0.37-1.237 0.952-4.515 0.84 0.166-0.87 0.102-1.729-0.205-2.569 1.255-0.467 3.899-1.598 5.167-2.65 0.175 0.142 0.307 0.329 0.382 0.545 0.106 0.307 0.085 0.638-0.058 0.932v0z"></path>
            <path fill="#a9c623" style="fill: var(--color2, #a9c623)" d="M17.727 13.793c-0.457-0.422-1.085 0.206-0.663 0.663l1.479 1.478c0.183 0.183 0.48 0.183 0.663 0s0.183-0.48 0-0.663l-1.479-1.479z"></path>
        </symbol>
        <symbol id="icon-berries" viewBox="0 0 34 32">
            <path fill="#f6f8f0" style="fill: var(--color1, #f6f8f0)" d="M19.583 3.505c-8.369-1.476-17.232-0.593-18.707 7.771s6.2 19.020 14.569 20.495c8.369 1.476 17.293-7.875 18.767-16.24s-6.26-10.552-14.629-12.027z"></path>
            <path fill="#f6f8f0" style="fill: var(--color1, #f6f8f0)" d="M0.064 29.094c0.229 1.3 1.518 2.314 2.77 2.094s1.952-1.641 1.723-2.941c-0.229-1.3-1.524-2.046-2.776-1.825s-1.946 1.372-1.717 2.672z"></path>
            <path fill="#f6f8f0" style="fill: var(--color1, #f6f8f0)" d="M33.287 26.474c-0.71-0.497-1.781-0.366-2.263 0.323s-0.709 1.874 0 2.371c0.71 0.497 2.218 0.039 2.7-0.649s0.272-1.548-0.438-2.045z"></path>
            <path fill="#f6f8f0" style="fill: var(--color1, #f6f8f0)" d="M1.708 2.66c0.107 0.609 0.715 1.084 1.307 0.98s0.976-0.32 0.869-0.929c-0.107-0.609-0.771-1.409-1.363-1.305s-0.92 0.645-0.812 1.254z"></path>
            <path fill="#a9c623" style="fill: var(--color2, #a9c623)" d="M15.242 19.864c0.258-0.127 0.572-0.025 0.702 0.227s0.026 0.559-0.232 0.686c-0.209 0.102-0.38 0.261-0.495 0.459-0.256 0.44-0.186 1.002 0.172 1.368 0.199 0.204 0.192 0.527-0.017 0.722-0.101 0.094-0.231 0.141-0.361 0.141-0.138 0-0.275-0.053-0.378-0.158-0.674-0.69-0.807-1.75-0.324-2.578 0.218-0.374 0.541-0.673 0.934-0.866z"></path>
            <path fill="#a9c623" style="fill: var(--color2, #a9c623)" d="M27.072 20.316l0.001-0.001c0.226-0.113 0.499-0.021 0.612 0.205s0.020 0.5-0.205 0.613c-0.066 0.033-0.135 0.048-0.204 0.048-0.168 0-0.329-0.093-0.409-0.253-0.113-0.226-0.021-0.5 0.204-0.613v0z"></path>
            <path fill="#a9c623" style="fill: var(--color2, #a9c623)" d="M12.132 9.936c-0.083 0.175-0.239 0.274-0.4 0.274-0.075 0-0.15-0.021-0.22-0.066-0.22-0.142-0.3-0.465-0.179-0.722l0.005-0.011c0.124-0.255 0.402-0.343 0.621-0.199s0.296 0.469 0.173 0.724z"></path>
            <path fill="#a9c623" style="fill: var(--color2, #a9c623)" d="M10.987 12.178c-0.069-0.266 0.091-0.537 0.358-0.606s0.538 0.091 0.607 0.357c0.18 0.697 0.612 1.283 1.221 1.661 0.339-0.229 0.716-0.404 1.122-0.515 0.78-0.213 1.589-0.173 2.331 0.108 0.168-0.171 0.314-0.362 0.434-0.573 0.368-0.644 0.462-1.392 0.266-2.107s-0.66-1.311-1.305-1.677c-0.889-0.506-1.981-0.484-2.85 0.057-0.233 0.145-0.54 0.074-0.686-0.159s-0.074-0.54 0.159-0.685c0.237-0.147 0.486-0.266 0.743-0.356-0.401-0.318-0.723-0.705-0.918-1.138-0.398-0.885-0.168-1.802 0.614-2.454 0.792-0.66 2.076-0.474 2.863 0.416 0.182 0.206 0.288 0.453 0.319 0.709 0.107-1.040 0.428-2.284 1.211-3.498 0.082-0.127 0.217-0.21 0.367-0.225s0.3 0.038 0.406 0.145c0.009 0.010 0.86 0.868 2.049 2.050 0.313-0.371 0.825-0.92 1.523-1.484 1.607-1.298 3.453-2.059 5.338-2.201 0.18-0.013 0.354 0.071 0.454 0.222 0.022 0.033 0.542 0.832 0.789 2.132 0.188 0.986 0.244 2.437-0.376 4.118 0.246-0.059 0.525-0.11 0.826-0.143 1.511-0.164 2.904 0.224 4.029 1.123 0.148 0.119 0.216 0.311 0.175 0.496-0.017 0.078-0.415 1.786-2.149 3.734 0.676 0.427 1.642 1.34 1.857 3.138 0.011 0.087-0.003 0.176-0.038 0.257-0.031 0.072-0.733 1.619-3.009 1.772 0.18 0.762 0.124 1.584-0.207 2.353-0.081 0.188-0.265 0.301-0.458 0.301-0.066 0-0.132-0.013-0.197-0.041-0.252-0.109-0.369-0.401-0.26-0.653 0.318-0.737 0.291-1.541-0.016-2.226-0.006-0.011-0.011-0.023-0.016-0.034-0.236-0.508-0.627-0.948-1.147-1.245-1.332-0.758-3.033-0.292-3.792 1.038-0.121 0.211-0.211 0.434-0.273 0.666 0.972 0.776 1.48 1.972 1.408 3.171 0.395 0.205 0.834 0.312 1.278 0.312 0.007 0 0.015 0 0.022 0 0.001 0 0.003 0 0.004 0 0.273 0 0.496 0.22 0.498 0.493 0.002 0.275-0.219 0.499-0.494 0.501h-0.030c-0.508 0-1.011-0.104-1.478-0.303-0.075 0.216-0.17 0.428-0.287 0.633-0.696 1.219-1.974 1.903-3.288 1.903-0.476 0-0.957-0.090-1.417-0.277-0.018 0.034-0.036 0.069-0.056 0.103-0.696 1.219-1.974 1.903-3.288 1.903-0.633 0-1.274-0.159-1.863-0.493-0.876-0.498-1.506-1.308-1.773-2.279s-0.139-1.988 0.361-2.862c0.019-0.034 0.040-0.067 0.061-0.101-0.661-0.498-1.137-1.195-1.359-2.006-0.267-0.971-0.139-1.988 0.361-2.862 0.116-0.204 0.25-0.394 0.399-0.569-0.702-0.512-1.202-1.243-1.423-2.097zM18.935 15.714c0.090 0.327 0.134 0.66 0.135 0.99 0.285-0.167 0.594-0.299 0.922-0.389 0.78-0.213 1.589-0.173 2.331 0.108 0.168-0.171 0.314-0.362 0.434-0.573 0.368-0.644 0.462-1.393 0.266-2.107s-0.66-1.311-1.305-1.678c-1.332-0.758-3.033-0.292-3.792 1.038-0.12 0.211-0.211 0.434-0.273 0.665 0.621 0.494 1.068 1.168 1.282 1.946v0zM18.286 10.24c0.090 0.328 0.134 0.661 0.135 0.992 0.982-0.577 2.203-0.697 3.306-0.262 0.202-0.541 0.23-1.13 0.074-1.697-0.196-0.715-0.66-1.311-1.305-1.678-0.64-0.364-1.421-0.457-2.142-0.255-0.42 0.118-0.794 0.326-1.104 0.605-0.025 0.029-0.053 0.056-0.084 0.079-0.069 0.068-0.134 0.14-0.195 0.215-0.003 0.007-0.006 0.014-0.009 0.021 0.643 0.496 1.106 1.184 1.324 1.98zM15.803 6.423c-0.273 0.241-0.623 0.364-0.982 0.349-0.367-0.016-0.701-0.175-0.941-0.446-0.182-0.206-0.162-0.52 0.044-0.701s0.521-0.162 0.703 0.044c0.059 0.067 0.144 0.106 0.238 0.11 0.102 0.004 0.2-0.031 0.279-0.101 0.158-0.139 0.182-0.369 0.055-0.513-0.469-0.531-1.143-0.589-1.478-0.31-0.444 0.37-0.56 0.802-0.344 1.284 0.275 0.612 1.031 1.186 1.934 1.389 0.047 0.008 0.094 0.018 0.141 0.028 0.246 0.044 0.501 0.059 0.759 0.041 0.038-0.046 0.077-0.091 0.118-0.136-0.058-0.338-0.134-0.948-0.102-1.714-0.069 0.253-0.211 0.49-0.424 0.677v0zM31.753 14.785c-0.305-1.975-1.753-2.46-1.812-2.479-0.167-0.050-0.296-0.185-0.338-0.354s0.006-0.348 0.129-0.472c1.455-1.464 2.054-2.857 2.26-3.449-0.863-0.592-1.87-0.833-2.999-0.717-0.961 0.099-1.655 0.431-1.66 0.434-0.193 0.095-0.425 0.055-0.576-0.099s-0.185-0.386-0.085-0.577c0.777-1.488 1.033-2.997 0.761-4.487-0.132-0.723-0.363-1.267-0.512-1.563-1.58 0.182-3.075 0.832-4.448 1.933-1.107 0.888-1.712 1.752-1.718 1.76-0.084 0.121-0.217 0.199-0.364 0.213s-0.292-0.038-0.397-0.142c-0.842-0.834-1.556-1.55-1.994-1.989-0.785 1.519-0.824 3.046-0.754 3.933 0.261-0.146 0.542-0.263 0.839-0.347 0.975-0.274 2.034-0.147 2.904 0.348 0.986 0.561 1.621 1.5 1.83 2.532 0.168-0.813 0.446-1.974 0.859-3.155 0.091-0.259 0.375-0.396 0.634-0.305s0.397 0.374 0.306 0.633c-0.421 1.204-0.699 2.408-0.856 3.194 0.948-0.275 2.001-0.184 2.924 0.341 0.186 0.106 0.358 0.225 0.519 0.356 0.514-0.221 1.363-0.652 1.708-1.113 0.165-0.22 0.477-0.265 0.697-0.1s0.265 0.476 0.1 0.696c-0.426 0.568-1.223 1.018-1.792 1.287 0.717 1.035 0.888 2.394 0.382 3.601 0.431 0.321 0.778 0.722 1.031 1.171 1.584 0.004 2.234-0.787 2.421-1.083zM27.423 14.21c0.465-1.251-0.032-2.693-1.231-3.375s-2.695-0.373-3.536 0.664c0.938 0.726 1.456 1.836 1.459 2.975 0.983-0.578 2.204-0.699 3.308-0.264zM23.406 21.324c0.759-1.33 0.293-3.028-1.040-3.785-0.645-0.367-1.395-0.461-2.111-0.265s-1.313 0.659-1.681 1.303c-0.020 0.034-0.038 0.069-0.056 0.104 0.658 0.498 1.132 1.194 1.354 2.002 0.166 0.606 0.179 1.23 0.043 1.826 1.277 0.535 2.788 0.046 3.49-1.185v0zM13.548 22.413c0.196 0.715 0.66 1.311 1.305 1.678 0.433 0.246 0.905 0.363 1.372 0.363 0.967-0 1.909-0.504 2.421-1.401 0.368-0.644 0.462-1.393 0.266-2.107s-0.66-1.311-1.305-1.678c-1.332-0.758-3.033-0.292-3.792 1.038-0.368 0.644-0.462 1.392-0.266 2.107v0zM12.611 17.444c0.166 0.607 0.526 1.127 1.025 1.495 1.059-0.997 2.63-1.312 4.011-0.753 0.021-0.033 0.041-0.067 0.061-0.101 0-0 0-0.001 0.001-0.001s0-0.001 0-0.001c0.367-0.644 0.461-1.392 0.265-2.107s-0.66-1.311-1.305-1.678c-0.645-0.367-1.395-0.461-2.111-0.265-0.382 0.104-0.73 0.285-1.027 0.529-0.001 0.001-0.001 0.001-0.002 0.002-0.259 0.213-0.48 0.472-0.652 0.772-0.368 0.644-0.462 1.393-0.265 2.107z"></path>
            <path fill="#a9c623" style="fill: var(--color2, #a9c623)" d="M25.084 5.18c-0.088 0.192-0.28 0.306-0.481 0.306-0.072 0-0.146-0.015-0.216-0.046-0.265-0.118-0.383-0.426-0.264-0.688l0.012-0.027c0.12-0.262 0.432-0.378 0.697-0.26s0.383 0.426 0.264 0.688l-0.012 0.027z"></path>
            <path fill="#a9c623" style="fill: var(--color2, #a9c623)" d="M19.504 19.056c-0.198-0.196-0.203-0.519-0.011-0.721 0.676-0.711 1.738-0.865 2.582-0.374 0.103 0.060 0.201 0.128 0.293 0.204 0.214 0.178 0.246 0.499 0.071 0.717s-0.49 0.251-0.703 0.072c-0.049-0.040-0.101-0.077-0.155-0.108-0.448-0.26-1.011-0.178-1.37 0.199-0.098 0.103-0.229 0.155-0.359 0.155-0.126 0-0.251-0.048-0.348-0.144v0z"></path>
            <path fill="#a9c623" style="fill: var(--color2, #a9c623)" d="M16.286 14.761c0.103 0.060 0.201 0.128 0.293 0.205 0.214 0.178 0.246 0.499 0.071 0.717s-0.49 0.25-0.703 0.072c-0.049-0.040-0.101-0.077-0.155-0.108-0.448-0.26-1.011-0.178-1.37 0.199-0.098 0.103-0.228 0.155-0.359 0.155-0.125 0-0.251-0.048-0.348-0.144-0.198-0.196-0.203-0.519-0.011-0.721 0.677-0.711 1.738-0.865 2.583-0.374v0z"></path>
            <path fill="#a9c623" style="fill: var(--color2, #a9c623)" d="M15.524 9.58c0.103 0.060 0.201 0.128 0.293 0.205 0.214 0.178 0.246 0.499 0.071 0.717s-0.49 0.25-0.703 0.072c-0.048-0.040-0.101-0.077-0.155-0.108-0.448-0.26-1.011-0.178-1.37 0.199-0.098 0.103-0.228 0.155-0.359 0.155-0.125 0-0.251-0.048-0.348-0.144-0.198-0.196-0.203-0.519-0.011-0.721 0.677-0.711 1.738-0.865 2.583-0.374v0z"></path>
            <path fill="#a9c623" style="fill: var(--color2, #a9c623)" d="M21.314 12.78c0.103 0.060 0.201 0.128 0.293 0.205 0.214 0.178 0.246 0.499 0.071 0.717s-0.49 0.251-0.704 0.072c-0.048-0.040-0.101-0.077-0.155-0.108-0.448-0.26-1.011-0.178-1.37 0.199-0.098 0.103-0.228 0.155-0.359 0.155-0.126 0-0.251-0.048-0.348-0.144-0.198-0.196-0.203-0.519-0.011-0.721 0.677-0.711 1.738-0.865 2.582-0.374v0z"></path>
            <path fill="#a9c623" style="fill: var(--color2, #a9c623)" d="M24.935 17.217c-0.098 0.103-0.229 0.155-0.359 0.155-0.125 0-0.251-0.048-0.348-0.144-0.198-0.196-0.203-0.519-0.011-0.721 0.676-0.711 1.738-0.865 2.582-0.374 0.102 0.059 0.201 0.128 0.292 0.204 0.214 0.178 0.246 0.499 0.071 0.717s-0.49 0.251-0.704 0.073c-0.049-0.040-0.101-0.077-0.155-0.108-0.448-0.26-1.011-0.178-1.37 0.199z"></path>
        </symbol>
        <symbol id="icon-nuts" viewBox="0 0 35 32">
            <path fill="#f6f8f0" style="fill: var(--color1, #f6f8f0)" d="M13.112 3.156c-7.811-1.377-9.495 5.774-10.871 13.581s-0.494 13.54 7.318 14.918c7.811 1.377 21.18-2.017 22.556-9.824s-11.191-17.298-19.003-18.676z"></path>
            <path fill="#f6f8f0" style="fill: var(--color1, #f6f8f0)" d="M0.066 6.055c0.107 0.607 0.714 1.079 1.306 0.975s0.923-0.768 0.816-1.375c-0.107-0.607-0.717-0.954-1.309-0.849s-0.92 0.642-0.813 1.249z"></path>
            <path fill="#f6f8f0" style="fill: var(--color1, #f6f8f0)" d="M32.989 27.497c-0.946-0.663-2.375-0.487-3.018 0.431s-0.946 2.5 0 3.162c0.946 0.663 2.958 0.052 3.601-0.866s0.363-2.065-0.583-2.727z"></path>
            <path fill="#f6f8f0" style="fill: var(--color1, #f6f8f0)" d="M18.287 1.829c0.147 0.834 0.995 1.481 1.823 1.335s1.367-0.443 1.22-1.278c-0.147-0.834-1.072-1.926-1.9-1.78s-1.29 0.888-1.143 1.722z"></path>
            <path fill="#a9c623" style="fill: var(--color2, #a9c623)" d="M27.342 19.138c0.212-0.187 0.437-0.374 0.675-0.572 1.248-1.038 2.662-2.214 2.662-3.681 0-0.288 0.232-0.522 0.518-0.522s0.518 0.234 0.518 0.522c0 1.958-1.685 3.359-3.039 4.485-0.233 0.193-0.452 0.376-0.654 0.553-0.098 0.086-0.219 0.129-0.34 0.129-0.144 0-0.288-0.061-0.391-0.179-0.188-0.217-0.166-0.547 0.050-0.736v0z"></path>
            <path fill="#a9c623" style="fill: var(--color2, #a9c623)" d="M21.716 17.513c0.274-0.078 0.558 0.086 0.634 0.367 0.519 1.911-0.726 3.737-1.727 5.204-0.171 0.251-0.332 0.488-0.478 0.714-0.099 0.154-0.263 0.237-0.43 0.237-0.097 0-0.196-0.028-0.283-0.087-0.237-0.161-0.303-0.488-0.146-0.731 0.154-0.239 0.319-0.481 0.494-0.738 0.922-1.352 1.967-2.885 1.579-4.316-0.076-0.281 0.084-0.572 0.358-0.65v0z"></path>
            <path fill="#a9c623" style="fill: var(--color2, #a9c623)" d="M12.151 10.324l0.955-0.267c0.014-0.004 0.029-0.009 0.043-0.013 0.006-0.002 0.011-0.002 0.017-0.004l0.103-0.029c-0.118-0.301-0.338-0.533-0.815-0.851-0.363-0.24-0.611-0.609-0.698-1.039s-0.003-0.868 0.237-1.232c0.239-0.364 0.606-0.613 1.033-0.701s0.863-0.003 1.225 0.238c1.15 0.765 1.819 1.595 2.158 2.707l0.963-0.269c0.494-0.138 0.997-0.203 1.497-0.196 0.684-2.215 2.756-3.779 5.089-3.779h1.16c-0.034-0.322-0.184-0.605-0.561-1.040-0.285-0.33-0.425-0.753-0.394-1.19s0.228-0.836 0.556-1.122c0.677-0.593 1.708-0.521 2.298 0.161 0.905 1.047 1.328 2.028 1.36 3.191h1c2.937 0 5.327 2.404 5.327 5.359 0 0.581-0.287 1.095-0.726 1.407v3.247c0 2.928-1.895 4.561-3.901 6.29-0.204 0.176-0.415 0.358-0.624 0.541-0.276 0.242-0.548 0.44-0.811 0.631-0.575 0.418-1.071 0.78-1.528 1.523-0.096 0.155-0.264 0.25-0.446 0.25h-0c-0.182 0-0.35-0.095-0.446-0.25-0.458-0.743-0.954-1.104-1.529-1.523-0.24-0.174-0.487-0.355-0.74-0.57-0.427 0.88-0.993 1.727-1.571 2.593-0.149 0.223-0.303 0.454-0.454 0.685-0.202 0.309-0.412 0.573-0.615 0.828-0.442 0.557-0.824 1.038-1.066 1.877-0.051 0.176-0.188 0.312-0.363 0.361-0.046 0.013-0.094 0.019-0.141 0.019-0.13 0-0.258-0.049-0.356-0.14-0.639-0.594-1.214-0.808-1.879-1.057-0.304-0.113-0.618-0.231-0.948-0.389l-0.18-0.087c-0.262-0.125-0.373-0.44-0.249-0.703s0.437-0.375 0.699-0.25c0.031 0.015 0.063 0.030 0.094 0.045l0.087 0.042c0.288 0.138 0.567 0.242 0.862 0.353 0.525 0.196 1.063 0.397 1.63 0.79 0.284-0.63 0.641-1.080 0.99-1.519 0.197-0.248 0.383-0.482 0.559-0.751 0.154-0.235 0.309-0.467 0.46-0.692 1.394-2.087 2.598-3.889 1.948-6.244l-0.78-2.824-2.252 0.629c-0.005 0.002-0.010 0.003-0.015 0.005-0.003 0.001-0.005 0.001-0.008 0.002l-2.338 0.653c-0.005 0.002-0.010 0.003-0.014 0.004l-5.142 1.436c-0.009 0.003-0.017 0.006-0.026 0.009-0.011 0.003-0.023 0.006-0.034 0.008l-2.233 0.624 0.779 2.824c0.263 0.951 0.732 1.702 1.475 2.363 0.217 0.193 0.238 0.527 0.046 0.745-0.104 0.118-0.248 0.178-0.393 0.178-0.123 0-0.248-0.044-0.347-0.132-0.89-0.791-1.476-1.73-1.791-2.871l-0.863-3.129c-0.091-0.033-0.18-0.073-0.265-0.122-0.399-0.227-0.687-0.596-0.809-1.038-0-0-0-0-0-0-0.786-2.847 0.877-5.806 3.707-6.597v0zM19.933 8.795c0.512 0.114 1.011 0.306 1.482 0.574 0.042 0.024 0.084 0.048 0.125 0.073 0.105-1.079 0.419-2.081 0.911-2.882 0.096-0.156 0.196-0.301 0.301-0.436-1.289 0.387-2.353 1.377-2.819 2.67v0zM24.992 5.946c-1.32 0-2.436 1.959-2.442 4.283 0.214 0.213 0.409 0.443 0.584 0.688h1.346c-0.222-1.215-0.027-3.161 0.296-4.321 0.068-0.243 0.141-0.459 0.221-0.65h-0.004zM26.224 2.393c-0.21-0.242-0.576-0.268-0.818-0.057-0.116 0.102-0.186 0.243-0.197 0.399s0.039 0.307 0.139 0.423c0.536 0.619 0.783 1.121 0.819 1.733h1.159c-0.030-0.905-0.362-1.641-1.103-2.498zM27.663 7.362c-0.189-0.908-0.412-1.296-0.523-1.416h-0.945c-0.111 0.119-0.333 0.505-0.523 1.41-0.315 1.502-0.273 2.992-0.126 3.561h2.242c0.146-0.568 0.188-2.055-0.125-3.555zM28.34 5.946h-0.004c0.080 0.191 0.153 0.407 0.221 0.65 0.322 1.159 0.517 3.106 0.295 4.321h1.706c0.069-0.040 0.224-0.279 0.224-0.668 0-2.332-1.118-4.303-2.442-4.303v0zM30.577 6.121c0.106 0.136 0.208 0.283 0.305 0.44 0.613 0.997 0.95 2.308 0.95 3.689 0 0.238-0.034 0.463-0.095 0.668h1.252c0.091 0 0.178-0.019 0.257-0.052 0.001-0 0.002-0.001 0.002-0.001 0.237-0.102 0.404-0.339 0.404-0.614 0-1.953-1.3-3.605-3.076-4.129zM24.469 17.274c0.356 1.292 0.258 2.429-0.095 3.494 0.065 0.057 0.131 0.113 0.195 0.17 0.241 0.211 0.482 0.386 0.737 0.572 0.453 0.33 0.918 0.668 1.36 1.199 0.441-0.531 0.906-0.869 1.36-1.199 0.255-0.186 0.496-0.361 0.736-0.571 0.212-0.186 0.425-0.369 0.63-0.547 1.896-1.635 3.534-3.047 3.534-5.489v-2.931h-4.805c-0 0-0.001 0-0.001 0s-0.001 0-0.001 0h-2.907c-0 0-0.001 0-0.001 0s-0.001 0-0.001 0h-1.493c0.083 0.201 0.154 0.409 0.213 0.623 0.154 0.559 0.013 1.131-0.326 1.55l0.865 3.129zM21.164 13.366c0.064 0.23 0.091 0.456 0.087 0.67l1.205-0.337c0.353-0.099 0.561-0.468 0.464-0.822-0.112-0.405-0.28-0.786-0.498-1.133-0.007-0.010-0.013-0.021-0.020-0.032-0.197-0.31-0.435-0.592-0.706-0.842-0.003-0.002-0.006-0.005-0.008-0.008-0.238-0.218-0.501-0.411-0.789-0.575-0.518-0.295-1.078-0.475-1.65-0.537-0.023-0.001-0.046-0.003-0.069-0.007-0.107-0.010-0.215-0.015-0.323-0.017 0.139 0.103 0.276 0.216 0.41 0.342 0.856 0.796 1.529 1.967 1.897 3.299v0zM18.471 14.813l1.645-0.46c0.056-0.058 0.141-0.33 0.037-0.704-0.316-1.145-0.884-2.142-1.598-2.806-0.642-0.597-1.312-0.84-1.888-0.685l-0.016 0.004c0.128 0.162 0.256 0.351 0.386 0.566 0.619 1.030 1.325 2.853 1.434 4.084v0zM14.459 12.247c0.098 1.529 0.534 2.948 0.826 3.456l2.16-0.603c-0.011-0.587-0.365-2.029-1.065-3.389-0.425-0.825-0.743-1.14-0.882-1.226l-0.912 0.255c-0.075 0.147-0.186 0.582-0.126 1.508v0zM15.339 9.433c0.011-0.004 0.023-0.007 0.035-0.010l0.023-0.006c-0.269-0.864-0.784-1.483-1.727-2.109-0.129-0.086-0.283-0.116-0.436-0.084s-0.282 0.119-0.367 0.249c-0.085 0.129-0.115 0.285-0.084 0.438s0.119 0.284 0.248 0.369c0.68 0.453 1.051 0.87 1.249 1.449l1.059-0.296zM12.221 15.866c0.103 0.372 0.314 0.561 0.392 0.583l1.645-0.46c-0.536-1.11-0.866-3.036-0.865-4.239 0-0.254 0.014-0.483 0.040-0.689l-0.021 0.006c-1.262 0.373-1.807 2.562-1.191 4.798zM9.455 16.639c0.047 0.171 0.159 0.313 0.314 0.402s0.334 0.111 0.503 0.063l1.207-0.337c-0.113-0.18-0.206-0.388-0.269-0.617-0.367-1.332-0.391-2.685-0.066-3.811 0.051-0.177 0.11-0.346 0.176-0.506-1.571 0.982-2.385 2.924-1.865 4.806z"></path>
            <path fill="#a9c623" style="fill: var(--color2, #a9c623)" d="M14.578 24.462c0.274 0 0.497 0.223 0.497 0.498s-0.223 0.498-0.497 0.498h-0.003c-0.274 0-0.496-0.223-0.496-0.498s0.224-0.498 0.498-0.498z"></path>
        </symbol>
        <symbol id="icon-beverages " viewBox="0 0 38 32">
            <path fill="#f6f8f0" style="fill: var(--color1, #f6f8f0)" d="M26.113 2.933c-8.409-1.483-22.525 0.462-24.007 8.866s6.174 18.349 14.584 19.832c8.409 1.483 16.16-3.413 17.642-11.817s0.191-15.398-8.219-16.881z"></path>
            <path fill="#f6f8f0" style="fill: var(--color1, #f6f8f0)" d="M3.286 27.8c0.115 0.653 0.769 1.162 1.406 1.049s0.994-0.827 0.879-1.48c-0.115-0.653-0.772-1.026-1.409-0.914s-0.991 0.692-0.875 1.345z"></path>
            <path fill="#f6f8f0" style="fill: var(--color1, #f6f8f0)" d="M3.974 0.512c-1.019-0.713-2.557-0.524-3.249 0.464s-1.019 2.691 0 3.404c1.019 0.713 3.184 0.056 3.877-0.933s0.391-2.223-0.628-2.936z"></path>
            <path fill="#f6f8f0" style="fill: var(--color1, #f6f8f0)" d="M34.079 28.457c0.158 0.898 1.071 1.595 1.962 1.438s1.472-0.477 1.313-1.375c-0.158-0.898-1.154-2.073-2.045-1.916s-1.389 0.956-1.231 1.854z"></path>
            <path fill="#a9c623" style="fill: var(--color2, #a9c623)" d="M34.792 2.022h-4.007c-0.097-0.525-0.28-0.996-0.609-1.342-0.333-0.35-0.77-0.527-1.299-0.527h-3.782c-0.291 0-0.527 0.234-0.527 0.523s0.236 0.523 0.527 0.523h3.782c0.308 0 0.452 0.114 0.534 0.2 0.514 0.54 0.43 2.065 0.373 3.074-0.017 0.31-0.034 0.604-0.034 0.848 0 0.125-0 0.244-0 0.357-0.001 0.591-0.001 1.054 0.025 1.454-2.001 0.538-4.044 0.499-5.933-0.117-1.977-0.646-4.1-0.716-6.188-0.214-0.006-0.598-0.18-1.209-0.521-1.9-0.428-0.865-1.047-1.737-1.841-2.592-0.355-0.382-0.414-0.67-0.352-0.812 0.080-0.181 0.399-0.298 0.813-0.298h4.616c0.291 0 0.527-0.234 0.527-0.523s-0.236-0.523-0.527-0.523h-4.616c-0.871 0-1.519 0.337-1.778 0.924-0.258 0.585-0.060 1.292 0.542 1.942 0.725 0.782 1.287 1.571 1.67 2.345 0.186 0.376 0.348 0.774 0.4 1.192 0.045 0.365-0.007 0.729-0.131 1.075-0.086 0.24-0.201 0.469-0.328 0.69-1.279 2.237-2.048 4.119-2.407 5.889-0.019 0.007-0.039 0.014-0.059 0.022-0.749-0.416-1.72-0.293-2.377 0.341-0.655 0.634-0.807 1.594-0.41 2.352-0.48 1.099-0.593 2.401-0.319 3.701 0.303 1.433 1.039 2.781 2.129 3.899s2.424 1.89 3.855 2.233c0.529 0.127 1.059 0.19 1.578 0.19 0.756 0 1.488-0.133 2.151-0.397 0.75 0.418 1.72 0.294 2.377-0.34h-0c0.502-0.485 0.709-1.162 0.601-1.793h5.090c0.162 0 0.309 0.001 0.443 0.002 0.11 0.001 0.214 0.002 0.311 0.002 0.554 0 0.927-0.028 1.285-0.232 0.415-0.236 0.699-0.651 1.167-1.365 1.842-2.814 2.67-5.496 2.461-7.972-0.009-0.105-0.020-0.209-0.032-0.312 1.766-0.79 2.924-2.542 2.924-4.488v-5.934c0-1.157-0.945-2.097-2.108-2.097zM32.998 11.361c-0.344-0.69-0.722-1.277-1.052-1.751-1.146-1.65-1.145-1.865-1.142-3.929 0-0.114 0-0.234 0-0.359 0-0.017 0-0.036 0-0.054h2.831v4.786c-0 0.51-0.244 0.991-0.638 1.307v0zM21.915 25.46c-0 0-0 0 0 0-0.357 0.345-0.896 0.385-1.254 0.093-0.157-0.128-0.374-0.155-0.558-0.069-2.028 0.946-4.767 0.252-6.66-1.687-1.893-1.941-2.509-4.684-1.498-6.672 0.091-0.18 0.071-0.396-0.053-0.555-0.283-0.365-0.228-0.901 0.128-1.245 0.197-0.19 0.45-0.287 0.697-0.287 0.201 0 0.397 0.064 0.558 0.195 0.157 0.128 0.374 0.155 0.558 0.069 0.164-0.076 0.332-0.141 0.504-0.196 0.010-0.003 0.020-0.006 0.030-0.010 1.955-0.612 4.394 0.119 6.126 1.893 1.894 1.94 2.511 4.684 1.499 6.672-0.090 0.177-0.069 0.398 0.053 0.555 0.283 0.366 0.227 0.901-0.13 1.246v0zM30.664 22.255c-0.369 0.563-0.607 0.914-0.807 1.027-0.167 0.095-0.447 0.097-1.065 0.092-0.137-0.001-0.287-0.002-0.452-0.002h-5.096c0.32-0.987 0.371-2.102 0.135-3.215-0.303-1.433-1.040-2.781-2.13-3.899s-2.424-1.89-3.856-2.233c-0.855-0.205-1.716-0.242-2.524-0.117 0.375-1.515 1.078-3.148 2.176-5.069 0.179-0.313 0.318-0.611 0.418-0.904 2.037-0.579 4.123-0.554 6.050 0.076 1.116 0.364 2.279 0.546 3.456 0.546 0.991 0 1.992-0.13 2.983-0.388 0.177 0.574 0.508 1.147 1.125 2.036 1.791 2.579 3.362 6.279-0.415 12.050v0zM35.846 10.054c0 1.443-0.81 2.751-2.066 3.418-0.097-0.397-0.217-0.774-0.352-1.13 0.771-0.499 1.261-1.364 1.261-2.288v-5.31c0-0.289-0.236-0.523-0.527-0.523h-3.31c0.019-0.374 0.035-0.765 0.027-1.152h3.912c0.581 0 1.054 0.471 1.054 1.051v5.934z"></path>
            <path fill="#a9c623" style="fill: var(--color2, #a9c623)" d="M24.364 14.838c0.905-0.079 1.725-0.51 2.309-1.212 0.183-0.22 0.155-0.547-0.063-0.732l-4.418-3.74c-0.105-0.089-0.24-0.132-0.376-0.12s-0.262 0.078-0.35 0.183c-1.206 1.447-1.020 3.614 0.417 4.83 0.619 0.523 1.384 0.803 2.181 0.803 0.1 0 0.2-0.004 0.301-0.013zM22.546 13.253c-0.865-0.733-1.080-1.96-0.579-2.931l3.543 2.999c-0.354 0.275-0.779 0.443-1.235 0.483-0.63 0.055-1.244-0.14-1.729-0.55v0z"></path>
            <path fill="#a9c623" style="fill: var(--color2, #a9c623)" d="M29.629 15.598c-0.104-0.093-0.24-0.141-0.38-0.133s-0.271 0.069-0.364 0.172l-3.946 4.333c-0.195 0.214-0.177 0.543 0.039 0.735 0.643 0.574 1.461 0.884 2.321 0.884 0.061 0 0.123-0.002 0.185-0.005 0.927-0.048 1.779-0.45 2.399-1.131 1.283-1.407 1.169-3.585-0.253-4.854v0zM29.1 19.755c-0.433 0.475-1.026 0.755-1.671 0.788-0.467 0.024-0.919-0.083-1.316-0.306l3.164-3.474c0.642 0.894 0.597 2.143-0.177 2.991z"></path>
            <path fill="#a9c623" style="fill: var(--color2, #a9c623)" d="M14.683 16.514c-0.181 0.178-0.183 0.468-0.005 0.649l0.001 0.001c0.090 0.091 0.208 0.137 0.326 0.137 0.116 0 0.233-0.044 0.322-0.132 0.181-0.178 0.183-0.469 0.005-0.649s-0.468-0.183-0.649-0.006z"></path>
            <path fill="#a9c623" style="fill: var(--color2, #a9c623)" d="M16.229 18.22c-0.254 0-0.459 0.206-0.459 0.459s0.206 0.459 0.459 0.459h0.001c0.253 0 0.458-0.206 0.458-0.459s-0.206-0.459-0.46-0.459z"></path>
            <path fill="#a9c623" style="fill: var(--color2, #a9c623)" d="M13.78 18.067c-0.254 0-0.459 0.206-0.459 0.459s0.206 0.459 0.459 0.459h0.001c0.254 0 0.458-0.206 0.458-0.459s-0.206-0.459-0.46-0.459v0z"></path>
            <path fill="#a9c623" style="fill: var(--color2, #a9c623)" d="M17.454 16.536c-0.253 0-0.459 0.206-0.459 0.459s0.206 0.459 0.459 0.459h0.001c0.253 0 0.458-0.206 0.458-0.459s-0.206-0.459-0.46-0.459v0z"></path>
            <path fill="#a9c623" style="fill: var(--color2, #a9c623)" d="M18.526 11.177c-0.254 0-0.459 0.205-0.459 0.459v0.003c0 0.253 0.206 0.457 0.459 0.457s0.459-0.207 0.459-0.46c-0-0.253-0.206-0.459-0.459-0.459z"></path>
            <path fill="#a9c623" style="fill: var(--color2, #a9c623)" d="M27.407 11.33c0.254 0 0.459-0.207 0.459-0.46s-0.206-0.459-0.459-0.459c-0.254 0-0.459 0.205-0.459 0.459v0.003c0 0.253 0.206 0.457 0.459 0.457z"></path>
            <path fill="#a9c623" style="fill: var(--color2, #a9c623)" d="M25.11 16.995c0-0.253-0.206-0.459-0.459-0.459s-0.459 0.205-0.459 0.459v0.003c0 0.253 0.206 0.457 0.459 0.457s0.459-0.207 0.459-0.46z"></path>
            <path fill="#a9c623" style="fill: var(--color2, #a9c623)" d="M30.163 14.086c0.254 0 0.459-0.207 0.459-0.46s-0.206-0.459-0.459-0.459c-0.254 0-0.459 0.205-0.459 0.459v0.003c0 0.253 0.206 0.457 0.459 0.457z"></path>
            <path fill="#a9c623" style="fill: var(--color2, #a9c623)" d="M22.736 1.072h0.003c0.296 0 0.534-0.206 0.534-0.459s-0.241-0.459-0.537-0.459c-0.296 0-0.535 0.206-0.535 0.459s0.24 0.459 0.535 0.459z"></path>
        </symbol>
        <symbol id="icon-arrow" viewBox="0 0 32 32">
            <path fill="#fff" style="fill: var(--color1, #fff)" d="M17.83 11.187c0 0.502 0.645 1.326 1.935 2.473 0.133 0.113 0.717 0.584 1.751 1.413-2.468-0.020-6.676-0.143-12.626-0.369-0.758 0-1.275 0.108-1.551 0.323-0.195 0.154-0.292 0.425-0.292 0.814 0 0.84 2.826 1.178 8.479 1.014 2.191-0.061 4.137-0.189 5.837-0.384 0.276-0.031 0.532-0.067 0.768-0.108-0.43 0.41-1.167 1.096-2.212 2.058-1.464 1.372-2.196 2.079-2.196 2.12 0 0.164 0.026 0.251 0.077 0.261l0.077-0.031c1.044 0.164 2.596-0.568 4.654-2.196 1.915-1.516 2.872-2.493 2.872-2.934-4.424-3.543-6.651-5.315-6.682-5.315-0.297 0-0.532 0.108-0.707 0.323-0.123 0.174-0.184 0.353-0.184 0.538z"></path>
        </symbol>
        <symbol id="icon-app" viewBox="0 0 20 32">
            <path fill="#f69946" style="fill: var(--color2, #f69946)" d="M15.329 1.357h-9.917c-2.278 0-4.132 1.855-4.132 4.132v21.488c0 2.278 1.855 4.132 4.132 4.132h9.917c2.278 0 4.132-1.855 4.132-4.132v-21.488c0-2.279-1.855-4.132-4.132-4.132zM17.809 26.976c0 1.367-1.113 2.48-2.48 2.48h-9.917c-1.367 0-2.48-1.113-2.48-2.48v-21.486c0-1.367 1.113-2.48 2.48-2.48h9.917c1.367 0 2.48 1.113 2.48 2.48v21.486z"></path>
            <path fill="#f69946" style="fill: var(--color2, #f69946)" d="M10.371 28.628c0.913 0 1.652-0.74 1.652-1.652s-0.74-1.652-1.652-1.652c-0.913 0-1.652 0.74-1.652 1.652s0.74 1.652 1.652 1.652z"></path>
            <path fill="#f69946" style="fill: var(--color2, #f69946)" d="M12.023 3.836h-3.306c-0.457 0-0.826 0.369-0.826 0.826s0.369 0.826 0.826 0.826h3.306c0.457 0 0.826-0.369 0.826-0.826s-0.369-0.826-0.826-0.826z"></path>
        </symbol>
    </defs>
</svg>
