<svg width="70" height="71" viewBox="0 0 70 71" fill="none" xmlns="http://www.w3.org/2000/svg">
<g clip-path="url(#clip0_2_434)">
<g clip-path="url(#clip1_2_434)">
<g clip-path="url(#clip2_2_434)">
<path fill-rule="evenodd" clip-rule="evenodd" d="M40.2509 11.6099C23.3139 8.6234 2.32341 13.8673 -0.661274 30.7942C-3.64596 47.7212 10.0792 66.5315 27.0161 69.5179C43.9531 72.5044 60.9877 62.6117 63.9724 45.6847C66.957 28.7578 57.1879 14.5963 40.2509 11.6099Z" fill="#F8F1F0"/>
<path fill-rule="evenodd" clip-rule="evenodd" d="M55.4958 66.9844C55.7277 68.2999 57.0445 69.3238 58.3269 69.0977C59.6092 68.8716 60.3287 67.4328 60.0967 66.1173C59.8648 64.8018 58.5412 64.0499 57.2588 64.276C55.9765 64.5021 55.2638 65.6689 55.4958 66.9844Z" fill="#F8F1F0"/>
<path fill-rule="evenodd" clip-rule="evenodd" d="M7.23252 5.85596C5.18087 4.41938 2.08285 4.80002 0.688691 6.79109C-0.705467 8.78215 -1.36296 12.2112 0.68869 13.6478C2.74034 15.0844 7.10226 13.7604 8.49642 11.7693C9.89058 9.77823 9.28417 7.29254 7.23252 5.85596Z" fill="#F8F1F0"/>
<path fill-rule="evenodd" clip-rule="evenodd" d="M64.1649 60.2885C64.4839 62.0973 66.322 63.5003 68.1173 63.1838C69.9125 62.8672 71.0816 62.2226 70.7627 60.4138C70.4437 58.605 68.4387 56.2383 66.6435 56.5549C64.8482 56.8714 63.846 58.4797 64.1649 60.2885Z" fill="#F8F1F0"/>
<path d="M56.7642 33.9834H50.5923V31.5747C52.7009 30.2807 54.3136 28.2552 55.0744 25.8543H56.4989C59.6586 25.8543 62.2291 23.2818 62.2291 20.1196C62.2291 18.3765 61.447 16.8136 60.2166 15.7609V15.2525C60.2166 6.95264 53.4695 0.200195 45.1762 0.200195C36.8829 0.200195 30.1358 6.95264 30.1358 15.2525V15.761C28.9055 16.8137 28.1234 18.3765 28.1234 20.1197C28.1234 23.2819 30.6939 25.8544 33.8536 25.8544H35.2781C36.0388 28.2552 37.6516 30.2807 39.7602 31.5748V33.9835H33.5882C26.5451 33.9834 20.815 39.718 20.815 46.7668V53.4133C20.815 53.9986 21.2892 54.4733 21.8742 54.4733H28.8845C29.4695 54.4733 29.9437 53.9986 29.9437 53.4133C29.9437 52.828 29.4695 52.3533 28.8845 52.3533H22.9334V46.7668C22.9334 40.887 27.713 36.1035 33.5882 36.1035H34.0966L40.3943 44.3365C40.5798 44.5791 40.8609 44.7297 41.1655 44.7498C41.1889 44.7514 41.2121 44.7521 41.2354 44.7521C41.5154 44.7521 41.785 44.641 41.9844 44.4416L44.1171 42.3073V52.3533H38.4172C37.8322 52.3533 37.358 52.828 37.358 53.4133C37.358 53.9986 37.8322 54.4733 38.4172 54.4733H68.4783C69.0633 54.4733 69.5375 53.9986 69.5375 53.4133V46.7668C69.5375 39.718 63.8074 33.9834 56.7642 33.9834ZM50.3159 36.1035H53.588L49.0111 42.0869L46.6741 39.7481L50.3159 36.1035ZM48.8397 11.2787C48.4256 10.8652 47.7549 10.8659 47.3418 11.2806L45.9297 12.6973C44.3482 14.2842 42.244 15.1581 40.0046 15.1581H36.9169C36.968 10.6425 40.6525 6.98434 45.1762 6.98434C49.7 6.98434 53.3845 10.6425 53.4354 15.158H51.5981C50.2539 15.158 48.9967 14.4752 48.2598 13.3615L48.8416 12.7778C49.2548 12.3633 49.254 11.6921 48.8397 11.2787ZM56.4989 23.7344H55.5562V16.505H56.4989C58.4905 16.505 60.1107 18.1267 60.1107 20.1198C60.1107 22.113 58.4905 23.7344 56.4989 23.7344ZM45.1762 2.32024C52.086 2.32024 57.7462 7.77607 58.0823 14.6094C57.5791 14.4643 57.0482 14.385 56.4989 14.385H55.5197C55.0778 9.06134 50.6078 4.86429 45.1762 4.86429C39.7446 4.86429 35.2747 9.06134 34.8328 14.3849H33.8536C33.3043 14.3849 32.7735 14.4643 32.2702 14.6094C32.6063 7.77607 38.2664 2.32024 45.1762 2.32024ZM34.7962 23.7344H33.8536C31.862 23.7344 30.2417 22.1129 30.2417 20.1197C30.2417 18.1265 31.862 16.5049 33.8536 16.5049H34.7962V23.7344ZM36.9146 22.7288V17.278H40.0046C42.4865 17.278 44.8358 16.4208 46.7168 14.8471C47.8642 16.3622 49.6729 17.278 51.5981 17.278H53.4379V22.7288C53.4379 23.302 53.3788 23.8616 53.2669 24.4021H48.9471C48.5099 23.1683 47.3326 22.282 45.9518 22.282H45.1044C43.3523 22.282 41.9269 23.7086 41.9269 25.4621C41.9269 27.2156 43.3523 28.6422 45.1044 28.6422H45.9518C47.3325 28.6422 48.5099 27.7559 48.9471 26.5221H52.5098C51.1323 29.169 48.3631 30.9822 45.1761 30.9822C40.6208 30.9822 36.9146 27.2798 36.9146 22.7288ZM47.0111 25.4621C47.0111 26.0466 46.5359 26.5221 45.9519 26.5221H45.1045C44.5205 26.5221 44.0453 26.0466 44.0453 25.4621C44.0453 24.8776 44.5205 24.4021 45.1045 24.4021H45.9519C46.5359 24.4021 47.0111 24.8777 47.0111 25.4621ZM45.1762 33.1023C46.3285 33.1023 47.4374 32.9134 48.4739 32.5655V34.9488L45.1762 38.2491L41.8786 34.9487V32.5654C42.9151 32.9133 44.0239 33.1023 45.1762 33.1023ZM41.3414 42.0869L36.7645 36.1035H40.0365L43.6783 39.7481L41.3414 42.0869ZM67.4191 52.3533H46.2354V42.3073L48.3682 44.4418C48.5675 44.6412 48.8372 44.7523 49.1171 44.7523C49.1403 44.7523 49.1637 44.7515 49.187 44.7501C49.4916 44.7299 49.7727 44.5793 49.9582 44.3368L56.2559 36.1037H56.7643C62.6394 36.1035 67.4191 40.887 67.4191 46.7668V52.3533Z" fill="#F69946"/>
<path d="M59.8601 46.7642H54.8536C54.2776 46.7642 53.8106 47.2475 53.8106 47.8435C53.8106 48.4394 54.2776 48.9228 54.8536 48.9228H59.8601C60.4362 48.9228 60.9031 48.4394 60.9031 47.8435C60.9031 47.2475 60.4362 46.7642 59.8601 46.7642Z" fill="#F69946"/>
<path d="M33.6123 52.3149C33.3274 52.3149 33.05 52.4303 32.8493 52.6312C32.6475 52.8319 32.5331 53.1104 32.5331 53.3942C32.5331 53.6781 32.6475 53.9565 32.8493 54.1572C33.049 54.3579 33.3274 54.4735 33.6123 54.4735C33.8962 54.4735 34.1736 54.358 34.3754 54.1572C34.5762 53.9565 34.6916 53.6781 34.6916 53.3942C34.6916 53.1104 34.5762 52.8319 34.3754 52.6312C34.1736 52.4303 33.8962 52.3149 33.6123 52.3149Z" fill="#F69946"/>
</g>
</g>
</g>
<defs>
<clipPath id="clip0_2_434">
<rect width="70" height="70" fill="white" transform="translate(0 0.200195)"/>
</clipPath>
<clipPath id="clip1_2_434">
<rect width="70" height="70" fill="white" transform="translate(0 0.200195)"/>
</clipPath>
<clipPath id="clip2_2_434">
<rect width="72.1586" height="70" fill="white" transform="translate(-1.07928 0.200195)"/>
</clipPath>
</defs>
</svg>
