<svg width="27" height="28" viewBox="0 0 27 28" fill="none" xmlns="http://www.w3.org/2000/svg">
<path d="M19.8657 9.18095C19.4734 9.4322 18.5729 9.7973 18.1287 9.7973C17.6215 9.2675 16.9075 8.9375 16.1157 8.9375C14.5777 8.9375 13.3306 10.1846 13.3306 11.722C13.3306 11.9356 13.3554 12.1439 13.4011 12.3437C11.3149 12.2889 9.03285 11.2433 7.6593 9.45365C6.8148 10.9154 7.5456 12.5411 8.50395 13.1335C8.1759 13.1582 7.572 13.0956 7.28775 12.8183C7.2687 13.7885 7.7352 15.074 9.4362 15.5403C9.1086 15.7166 8.5287 15.6661 8.27655 15.6286C8.36505 16.4476 9.51195 17.5182 10.7661 17.5182C10.3191 18.0353 8.6373 18.9731 6.75 18.6748C8.03175 19.4546 9.5256 19.9062 11.1067 19.9062C15.6 19.9062 19.0894 16.2647 18.9016 11.7724C18.9009 11.7674 18.9009 11.7625 18.9005 11.7571C18.9009 11.7455 18.9016 11.734 18.9016 11.722C18.9016 11.708 18.9004 11.6948 18.9 11.6813C19.309 11.4016 19.8579 10.9067 20.25 10.2554C20.0226 10.3806 19.3404 10.6314 18.7056 10.6937C19.113 10.4738 19.7166 9.75365 19.8657 9.18095Z" fill="#A49D98"/>
</svg>
